G75*
%MOIN*%
%OFA0B0*%
%FSLAX25Y25*%
%IPPOS*%
%LPD*%
%AMOC8*
5,1,8,0,0,1.08239X$1,22.5*
%
%ADD10R,0.45000X0.50000*%
%ADD11C,0.06299*%
%ADD12C,0.07000*%
%ADD13C,0.07600*%
%ADD14OC8,0.05200*%
%ADD15C,0.06300*%
%ADD16R,0.04600X0.06300*%
%ADD17C,0.05937*%
%ADD18C,0.07500*%
%ADD19C,0.01575*%
%ADD20C,0.04331*%
%ADD21C,0.03150*%
D10*
X0146787Y0071787D03*
D11*
X0149031Y0118224D03*
X0156906Y0118224D03*
X0164780Y0118224D03*
X0141157Y0118224D03*
X0133283Y0118224D03*
X0125409Y0118224D03*
X0117535Y0118224D03*
X0109661Y0118224D03*
X0071787Y0061787D03*
X0061787Y0061787D03*
X0064287Y0019287D03*
X0074287Y0019287D03*
X0133283Y0187122D03*
X0141157Y0187122D03*
X0149031Y0187122D03*
X0094287Y0221787D03*
X0084287Y0221787D03*
X0049287Y0221787D03*
X0039287Y0221787D03*
D12*
X0028269Y0064774D03*
X0010237Y0064774D03*
X0010434Y0039183D03*
X0028072Y0039380D03*
D13*
X0136787Y0211787D03*
D14*
X0046787Y0024287D03*
X0039287Y0019287D03*
X0046787Y0014287D03*
D15*
X0089287Y0054287D03*
X0089287Y0094287D03*
X0089287Y0109287D03*
X0089287Y0149287D03*
X0089287Y0164287D03*
X0089287Y0204287D03*
D16*
X0086287Y0041787D03*
X0092287Y0041787D03*
X0052287Y0036787D03*
X0046287Y0036787D03*
D17*
X0071787Y0076787D03*
X0071787Y0086787D03*
X0071787Y0096787D03*
X0071787Y0106787D03*
X0071787Y0116787D03*
X0071787Y0126787D03*
X0071787Y0136787D03*
X0071787Y0146787D03*
X0071787Y0156787D03*
X0071787Y0166787D03*
X0071787Y0176787D03*
X0071787Y0186787D03*
X0061787Y0151787D03*
X0061787Y0141787D03*
X0011787Y0136787D03*
X0011787Y0126787D03*
X0011787Y0116787D03*
X0011787Y0106787D03*
X0011787Y0096787D03*
X0011787Y0086787D03*
X0011787Y0076787D03*
X0011787Y0146787D03*
X0011787Y0156787D03*
X0011787Y0166787D03*
X0011787Y0176787D03*
X0011787Y0186787D03*
D18*
X0094287Y0023037D02*
X0094287Y0015537D01*
X0109287Y0015537D02*
X0109287Y0023037D01*
X0124287Y0023037D02*
X0124287Y0015537D01*
X0139287Y0015537D02*
X0139287Y0023037D01*
D19*
X0006575Y0024421D02*
X0006575Y0035565D01*
X0006989Y0035150D01*
X0007663Y0034661D01*
X0008404Y0034283D01*
X0009196Y0034026D01*
X0010018Y0033896D01*
X0010139Y0033896D01*
X0010139Y0038888D01*
X0010729Y0038888D01*
X0010729Y0039478D01*
X0015721Y0039478D01*
X0015721Y0039599D01*
X0015591Y0040421D01*
X0015334Y0041213D01*
X0014956Y0041954D01*
X0014467Y0042628D01*
X0013878Y0043216D01*
X0013205Y0043705D01*
X0012464Y0044083D01*
X0011672Y0044340D01*
X0010850Y0044470D01*
X0010729Y0044470D01*
X0010729Y0039478D01*
X0010139Y0039478D01*
X0010139Y0044470D01*
X0010018Y0044470D01*
X0009196Y0044340D01*
X0008404Y0044083D01*
X0007663Y0043705D01*
X0006989Y0043216D01*
X0006575Y0042802D01*
X0006575Y0060958D01*
X0006792Y0060741D01*
X0007466Y0060251D01*
X0008207Y0059874D01*
X0008999Y0059616D01*
X0009821Y0059486D01*
X0009942Y0059486D01*
X0009942Y0064478D01*
X0010532Y0064478D01*
X0010532Y0059486D01*
X0010653Y0059486D01*
X0011475Y0059616D01*
X0012267Y0059874D01*
X0013008Y0060251D01*
X0013682Y0060741D01*
X0014270Y0061329D01*
X0014759Y0062002D01*
X0015137Y0062744D01*
X0015394Y0063535D01*
X0015524Y0064357D01*
X0015524Y0064478D01*
X0010532Y0064478D01*
X0010532Y0065069D01*
X0009942Y0065069D01*
X0009942Y0070061D01*
X0009821Y0070061D01*
X0008999Y0069931D01*
X0008207Y0069674D01*
X0007466Y0069296D01*
X0006792Y0068807D01*
X0006575Y0068589D01*
X0006575Y0075442D01*
X0007268Y0073768D01*
X0008768Y0072268D01*
X0010727Y0071457D01*
X0012848Y0071457D01*
X0014807Y0072268D01*
X0016307Y0073768D01*
X0017118Y0075727D01*
X0017118Y0077848D01*
X0016307Y0079807D01*
X0014807Y0081307D01*
X0013646Y0081787D01*
X0014807Y0082268D01*
X0016177Y0083638D01*
X0020483Y0083638D01*
X0026138Y0077983D01*
X0026138Y0070236D01*
X0024948Y0069743D01*
X0023299Y0068094D01*
X0022406Y0065940D01*
X0022406Y0063608D01*
X0023299Y0061453D01*
X0024948Y0059804D01*
X0025119Y0059733D01*
X0025119Y0044502D01*
X0024751Y0044350D01*
X0023102Y0042701D01*
X0022209Y0040546D01*
X0022209Y0038214D01*
X0023102Y0036059D01*
X0024751Y0034410D01*
X0026906Y0033518D01*
X0029238Y0033518D01*
X0031392Y0034410D01*
X0033041Y0036059D01*
X0033934Y0038214D01*
X0033934Y0040546D01*
X0033041Y0042701D01*
X0031418Y0044324D01*
X0031418Y0059733D01*
X0031589Y0059804D01*
X0033238Y0061453D01*
X0034131Y0063608D01*
X0034131Y0065940D01*
X0033238Y0068094D01*
X0032437Y0068896D01*
X0032437Y0079914D01*
X0031957Y0081072D01*
X0031072Y0081957D01*
X0023572Y0089457D01*
X0022414Y0089937D01*
X0016177Y0089937D01*
X0014807Y0091307D01*
X0013646Y0091787D01*
X0014807Y0092268D01*
X0016307Y0093768D01*
X0017118Y0095727D01*
X0017118Y0097848D01*
X0016307Y0099807D01*
X0014807Y0101307D01*
X0013646Y0101787D01*
X0014807Y0102268D01*
X0016307Y0103768D01*
X0017118Y0105727D01*
X0017118Y0107848D01*
X0016307Y0109807D01*
X0014807Y0111307D01*
X0013646Y0111787D01*
X0014807Y0112268D01*
X0016307Y0113768D01*
X0017118Y0115727D01*
X0017118Y0117848D01*
X0016307Y0119807D01*
X0014807Y0121307D01*
X0013646Y0121787D01*
X0014807Y0122268D01*
X0016307Y0123768D01*
X0017118Y0125727D01*
X0017118Y0127848D01*
X0016307Y0129807D01*
X0014807Y0131307D01*
X0013646Y0131787D01*
X0014807Y0132268D01*
X0016177Y0133638D01*
X0019914Y0133638D01*
X0021072Y0134117D01*
X0021957Y0135003D01*
X0026071Y0139117D01*
X0026072Y0139117D01*
X0026957Y0140003D01*
X0027437Y0141161D01*
X0027437Y0168534D01*
X0028126Y0169223D01*
X0028815Y0170887D01*
X0028815Y0172688D01*
X0028126Y0174352D01*
X0026852Y0175626D01*
X0025188Y0176315D01*
X0023387Y0176315D01*
X0021723Y0175626D01*
X0020449Y0174352D01*
X0019760Y0172688D01*
X0019760Y0170887D01*
X0020449Y0169223D01*
X0021138Y0168534D01*
X0021138Y0143092D01*
X0017983Y0139937D01*
X0016177Y0139937D01*
X0014807Y0141307D01*
X0013646Y0141787D01*
X0014807Y0142268D01*
X0016307Y0143768D01*
X0017118Y0145727D01*
X0017118Y0147848D01*
X0016307Y0149807D01*
X0014807Y0151307D01*
X0012848Y0152118D01*
X0012708Y0152118D01*
X0012901Y0152149D01*
X0013613Y0152380D01*
X0014280Y0152720D01*
X0014886Y0153160D01*
X0015415Y0153689D01*
X0015855Y0154295D01*
X0016195Y0154962D01*
X0016426Y0155674D01*
X0016543Y0156413D01*
X0016543Y0156591D01*
X0011984Y0156591D01*
X0011984Y0156984D01*
X0016543Y0156984D01*
X0016543Y0157162D01*
X0016426Y0157901D01*
X0016195Y0158613D01*
X0015855Y0159280D01*
X0015415Y0159886D01*
X0014886Y0160415D01*
X0014280Y0160855D01*
X0013613Y0161195D01*
X0012901Y0161426D01*
X0012708Y0161457D01*
X0012848Y0161457D01*
X0014807Y0162268D01*
X0016307Y0163768D01*
X0017118Y0165727D01*
X0017118Y0167848D01*
X0016307Y0169807D01*
X0014807Y0171307D01*
X0013646Y0171787D01*
X0014807Y0172268D01*
X0016307Y0173768D01*
X0017118Y0175727D01*
X0017118Y0177848D01*
X0016307Y0179807D01*
X0014807Y0181307D01*
X0013646Y0181787D01*
X0014807Y0182268D01*
X0016307Y0183768D01*
X0017118Y0185727D01*
X0017118Y0187848D01*
X0016307Y0189807D01*
X0014807Y0191307D01*
X0012848Y0192118D01*
X0010727Y0192118D01*
X0008768Y0191307D01*
X0007268Y0189807D01*
X0006575Y0188133D01*
X0006575Y0216653D01*
X0006656Y0216513D01*
X0009013Y0214156D01*
X0011900Y0212489D01*
X0015120Y0211626D01*
X0018454Y0211626D01*
X0021675Y0212489D01*
X0024562Y0214156D01*
X0026919Y0216513D01*
X0028586Y0219400D01*
X0029449Y0222620D01*
X0029449Y0225954D01*
X0028586Y0229175D01*
X0026919Y0232062D01*
X0025760Y0233220D01*
X0155315Y0233220D01*
X0154156Y0232062D01*
X0152489Y0229175D01*
X0151626Y0225954D01*
X0151626Y0222620D01*
X0152489Y0219400D01*
X0154156Y0216513D01*
X0156513Y0214156D01*
X0159400Y0212489D01*
X0162620Y0211626D01*
X0165954Y0211626D01*
X0169175Y0212489D01*
X0172062Y0214156D01*
X0174165Y0216259D01*
X0174165Y0024815D01*
X0172062Y0026919D01*
X0169175Y0028586D01*
X0165954Y0029449D01*
X0162620Y0029449D01*
X0159400Y0028586D01*
X0156513Y0026919D01*
X0154156Y0024562D01*
X0152489Y0021675D01*
X0151626Y0018454D01*
X0151626Y0015120D01*
X0152489Y0011900D01*
X0154156Y0009013D01*
X0156513Y0006656D01*
X0156653Y0006575D01*
X0024421Y0006575D01*
X0024562Y0006656D01*
X0026919Y0009013D01*
X0028586Y0011900D01*
X0029449Y0015120D01*
X0029449Y0018454D01*
X0028586Y0021675D01*
X0026919Y0024562D01*
X0024562Y0026919D01*
X0021675Y0028586D01*
X0018454Y0029449D01*
X0015120Y0029449D01*
X0011900Y0028586D01*
X0009013Y0026919D01*
X0006656Y0024562D01*
X0006575Y0024421D01*
X0006575Y0025387D02*
X0007481Y0025387D01*
X0006575Y0026960D02*
X0009085Y0026960D01*
X0006575Y0028534D02*
X0011810Y0028534D01*
X0010850Y0033896D02*
X0011672Y0034026D01*
X0012464Y0034283D01*
X0013205Y0034661D01*
X0013878Y0035150D01*
X0014467Y0035739D01*
X0014956Y0036412D01*
X0015334Y0037153D01*
X0015591Y0037945D01*
X0015721Y0038767D01*
X0015721Y0038888D01*
X0010729Y0038888D01*
X0010729Y0033896D01*
X0010850Y0033896D01*
X0010729Y0034827D02*
X0010139Y0034827D01*
X0010139Y0036400D02*
X0010729Y0036400D01*
X0010729Y0037974D02*
X0010139Y0037974D01*
X0010139Y0039547D02*
X0010729Y0039547D01*
X0010729Y0041120D02*
X0010139Y0041120D01*
X0010139Y0042694D02*
X0010729Y0042694D01*
X0010729Y0044267D02*
X0010139Y0044267D01*
X0008970Y0044267D02*
X0006575Y0044267D01*
X0006575Y0045840D02*
X0025119Y0045840D01*
X0025119Y0047414D02*
X0006575Y0047414D01*
X0006575Y0048987D02*
X0025119Y0048987D01*
X0025119Y0050560D02*
X0006575Y0050560D01*
X0006575Y0052133D02*
X0025119Y0052133D01*
X0025119Y0053707D02*
X0006575Y0053707D01*
X0006575Y0055280D02*
X0025119Y0055280D01*
X0025119Y0056853D02*
X0006575Y0056853D01*
X0006575Y0058427D02*
X0025119Y0058427D01*
X0024752Y0060000D02*
X0012515Y0060000D01*
X0010532Y0060000D02*
X0009942Y0060000D01*
X0009942Y0061573D02*
X0010532Y0061573D01*
X0010532Y0063147D02*
X0009942Y0063147D01*
X0010532Y0064720D02*
X0022406Y0064720D01*
X0022553Y0066293D02*
X0015303Y0066293D01*
X0015394Y0066012D02*
X0015137Y0066803D01*
X0014759Y0067545D01*
X0014270Y0068218D01*
X0013682Y0068807D01*
X0013008Y0069296D01*
X0012267Y0069674D01*
X0011475Y0069931D01*
X0010653Y0070061D01*
X0010532Y0070061D01*
X0010532Y0065069D01*
X0015524Y0065069D01*
X0015524Y0065190D01*
X0015394Y0066012D01*
X0014525Y0067867D02*
X0023204Y0067867D01*
X0024644Y0069440D02*
X0012725Y0069440D01*
X0015125Y0072587D02*
X0026138Y0072587D01*
X0026138Y0074160D02*
X0016469Y0074160D01*
X0017118Y0075733D02*
X0026138Y0075733D01*
X0026138Y0077306D02*
X0017118Y0077306D01*
X0016691Y0078880D02*
X0025241Y0078880D01*
X0023667Y0080453D02*
X0015660Y0080453D01*
X0014223Y0082026D02*
X0022094Y0082026D01*
X0020521Y0083600D02*
X0016139Y0083600D01*
X0011787Y0086787D02*
X0021787Y0086787D01*
X0029287Y0079287D01*
X0029287Y0065793D01*
X0028269Y0064774D01*
X0028269Y0039577D01*
X0028072Y0039380D01*
X0031809Y0034827D02*
X0041625Y0034827D01*
X0041625Y0033254D02*
X0006575Y0033254D01*
X0006575Y0034827D02*
X0007434Y0034827D01*
X0006575Y0031680D02*
X0042604Y0031680D01*
X0043009Y0031275D02*
X0048638Y0031275D01*
X0048638Y0029250D01*
X0044732Y0029250D01*
X0041825Y0026343D01*
X0041825Y0022954D01*
X0041105Y0023675D01*
X0039300Y0023675D01*
X0039300Y0019300D01*
X0039275Y0019300D01*
X0039275Y0023675D01*
X0037470Y0023675D01*
X0034900Y0021105D01*
X0034900Y0019300D01*
X0039275Y0019300D01*
X0039275Y0019275D01*
X0034900Y0019275D01*
X0034900Y0017470D01*
X0037470Y0014900D01*
X0039275Y0014900D01*
X0039275Y0019275D01*
X0039300Y0019275D01*
X0039300Y0019300D01*
X0043675Y0019300D01*
X0043675Y0020382D01*
X0044732Y0019325D01*
X0048843Y0019325D01*
X0050655Y0021138D01*
X0057983Y0021138D01*
X0058753Y0020367D01*
X0058776Y0020345D01*
X0058776Y0018191D01*
X0059615Y0016165D01*
X0061165Y0014615D01*
X0063191Y0013776D01*
X0065384Y0013776D01*
X0067410Y0014615D01*
X0068960Y0016165D01*
X0069605Y0017722D01*
X0069712Y0017392D01*
X0070065Y0016700D01*
X0070522Y0016071D01*
X0071071Y0015522D01*
X0071700Y0015065D01*
X0072392Y0014712D01*
X0073131Y0014472D01*
X0073899Y0014350D01*
X0074189Y0014350D01*
X0074189Y0019189D01*
X0074386Y0019189D01*
X0074386Y0019386D01*
X0074189Y0019386D01*
X0074189Y0024224D01*
X0073899Y0024224D01*
X0073131Y0024103D01*
X0072392Y0023863D01*
X0071700Y0023510D01*
X0071071Y0023053D01*
X0070522Y0022504D01*
X0070065Y0021875D01*
X0069712Y0021183D01*
X0069605Y0020853D01*
X0068960Y0022410D01*
X0067410Y0023960D01*
X0066352Y0024398D01*
X0068092Y0026138D01*
X0082983Y0026138D01*
X0088175Y0020945D01*
X0088175Y0014322D01*
X0089106Y0012075D01*
X0090825Y0010356D01*
X0093072Y0009425D01*
X0095503Y0009425D01*
X0097750Y0010356D01*
X0099469Y0012075D01*
X0100400Y0014322D01*
X0100400Y0024253D01*
X0099469Y0026500D01*
X0097750Y0028219D01*
X0096224Y0028851D01*
X0096224Y0036934D01*
X0096950Y0037659D01*
X0096950Y0037850D01*
X0122571Y0037850D01*
X0124018Y0038450D01*
X0129993Y0044425D01*
X0170266Y0044425D01*
X0171650Y0045809D01*
X0171650Y0097766D01*
X0170266Y0099150D01*
X0123309Y0099150D01*
X0121925Y0097766D01*
X0121925Y0047493D01*
X0120157Y0045724D01*
X0096950Y0045724D01*
X0096950Y0045916D01*
X0095566Y0047300D01*
X0083229Y0047300D01*
X0082437Y0048092D01*
X0082437Y0152653D01*
X0083387Y0152260D01*
X0084552Y0152260D01*
X0083775Y0150384D01*
X0083775Y0148191D01*
X0084614Y0146165D01*
X0086165Y0144614D01*
X0088191Y0143775D01*
X0090384Y0143775D01*
X0092410Y0144614D01*
X0093960Y0146165D01*
X0094800Y0148191D01*
X0094800Y0150384D01*
X0093960Y0152410D01*
X0092732Y0153638D01*
X0105483Y0153638D01*
X0106512Y0152609D01*
X0106512Y0122870D01*
X0104989Y0121347D01*
X0104150Y0119321D01*
X0104150Y0117128D01*
X0104989Y0115102D01*
X0106539Y0113552D01*
X0108565Y0112713D01*
X0110758Y0112713D01*
X0112784Y0113552D01*
X0114005Y0114773D01*
X0114319Y0114459D01*
X0114948Y0114002D01*
X0115640Y0113649D01*
X0116379Y0113409D01*
X0117147Y0113287D01*
X0117535Y0113287D01*
X0117535Y0118224D01*
X0117535Y0118224D01*
X0117535Y0113287D01*
X0117924Y0113287D01*
X0118692Y0113409D01*
X0119431Y0113649D01*
X0120123Y0114002D01*
X0120752Y0114459D01*
X0121066Y0114773D01*
X0121138Y0114701D01*
X0121138Y0108092D01*
X0120483Y0107437D01*
X0116161Y0107437D01*
X0115003Y0106957D01*
X0114117Y0106072D01*
X0106617Y0098572D01*
X0106227Y0097630D01*
X0105449Y0096852D01*
X0104760Y0095188D01*
X0104760Y0093387D01*
X0105449Y0091723D01*
X0106723Y0090449D01*
X0108387Y0089760D01*
X0110188Y0089760D01*
X0111852Y0090449D01*
X0113126Y0091723D01*
X0113815Y0093387D01*
X0113815Y0095188D01*
X0113325Y0096371D01*
X0118092Y0101138D01*
X0122414Y0101138D01*
X0123572Y0101617D01*
X0126072Y0104117D01*
X0126957Y0105003D01*
X0127437Y0106161D01*
X0127437Y0113098D01*
X0128532Y0113552D01*
X0129346Y0114367D01*
X0130161Y0113552D01*
X0132187Y0112713D01*
X0134380Y0112713D01*
X0136406Y0113552D01*
X0137220Y0114367D01*
X0138035Y0113552D01*
X0140061Y0112713D01*
X0142254Y0112713D01*
X0144280Y0113552D01*
X0145094Y0114367D01*
X0145909Y0113552D01*
X0147935Y0112713D01*
X0150128Y0112713D01*
X0152154Y0113552D01*
X0152968Y0114367D01*
X0153783Y0113552D01*
X0155809Y0112713D01*
X0158002Y0112713D01*
X0160028Y0113552D01*
X0160843Y0114367D01*
X0161657Y0113552D01*
X0163683Y0112713D01*
X0165876Y0112713D01*
X0167902Y0113552D01*
X0169452Y0115102D01*
X0170291Y0117128D01*
X0170291Y0119321D01*
X0169452Y0121347D01*
X0167902Y0122897D01*
X0165876Y0123736D01*
X0163683Y0123736D01*
X0161657Y0122897D01*
X0160843Y0122082D01*
X0160028Y0122897D01*
X0158002Y0123736D01*
X0155809Y0123736D01*
X0153783Y0122897D01*
X0152968Y0122082D01*
X0152154Y0122897D01*
X0150128Y0123736D01*
X0147935Y0123736D01*
X0145909Y0122897D01*
X0145094Y0122082D01*
X0144280Y0122897D01*
X0142254Y0123736D01*
X0140061Y0123736D01*
X0138035Y0122897D01*
X0137220Y0122082D01*
X0136406Y0122897D01*
X0134380Y0123736D01*
X0132187Y0123736D01*
X0130161Y0122897D01*
X0129346Y0122082D01*
X0128532Y0122897D01*
X0126506Y0123736D01*
X0124313Y0123736D01*
X0122287Y0122897D01*
X0121066Y0121676D01*
X0120752Y0121990D01*
X0120123Y0122447D01*
X0119431Y0122800D01*
X0118692Y0123040D01*
X0117924Y0123161D01*
X0117535Y0123161D01*
X0117147Y0123161D01*
X0116379Y0123040D01*
X0115640Y0122800D01*
X0114948Y0122447D01*
X0114319Y0121990D01*
X0114005Y0121676D01*
X0112811Y0122870D01*
X0112811Y0154540D01*
X0112332Y0155697D01*
X0109457Y0158572D01*
X0108572Y0159457D01*
X0107414Y0159937D01*
X0092732Y0159937D01*
X0093960Y0161165D01*
X0094800Y0163191D01*
X0094800Y0165384D01*
X0093960Y0167410D01*
X0092410Y0168960D01*
X0090384Y0169800D01*
X0088191Y0169800D01*
X0086165Y0168960D01*
X0084614Y0167410D01*
X0083775Y0165384D01*
X0083775Y0163191D01*
X0084552Y0161315D01*
X0083387Y0161315D01*
X0082437Y0160922D01*
X0082437Y0182414D01*
X0081957Y0183572D01*
X0076957Y0188572D01*
X0076720Y0188809D01*
X0076307Y0189807D01*
X0074807Y0191307D01*
X0072848Y0192118D01*
X0070727Y0192118D01*
X0068768Y0191307D01*
X0067268Y0189807D01*
X0066457Y0187848D01*
X0066457Y0185727D01*
X0067268Y0183768D01*
X0068768Y0182268D01*
X0070727Y0181457D01*
X0070866Y0181457D01*
X0070674Y0181426D01*
X0069962Y0181195D01*
X0069295Y0180855D01*
X0068689Y0180415D01*
X0068160Y0179886D01*
X0067720Y0179280D01*
X0067380Y0178613D01*
X0067149Y0177901D01*
X0067031Y0177162D01*
X0067031Y0176984D01*
X0071590Y0176984D01*
X0071590Y0176591D01*
X0067031Y0176591D01*
X0067031Y0176413D01*
X0067149Y0175674D01*
X0067380Y0174962D01*
X0067720Y0174295D01*
X0068160Y0173689D01*
X0068689Y0173160D01*
X0069295Y0172720D01*
X0069962Y0172380D01*
X0070674Y0172149D01*
X0070866Y0172118D01*
X0070727Y0172118D01*
X0068768Y0171307D01*
X0067268Y0169807D01*
X0066457Y0167848D01*
X0066457Y0165727D01*
X0067268Y0163768D01*
X0068599Y0162437D01*
X0051161Y0162437D01*
X0050003Y0161957D01*
X0049117Y0161072D01*
X0044117Y0156072D01*
X0043638Y0154914D01*
X0043638Y0050041D01*
X0042949Y0049352D01*
X0042260Y0047688D01*
X0042260Y0045887D01*
X0042949Y0044223D01*
X0043638Y0043534D01*
X0043638Y0042300D01*
X0043009Y0042300D01*
X0041625Y0040916D01*
X0041625Y0032659D01*
X0043009Y0031275D01*
X0044016Y0028534D02*
X0021765Y0028534D01*
X0024490Y0026960D02*
X0042443Y0026960D01*
X0041825Y0025387D02*
X0026094Y0025387D01*
X0027351Y0023814D02*
X0041825Y0023814D01*
X0043675Y0019275D02*
X0039300Y0019275D01*
X0039300Y0014900D01*
X0041105Y0014900D01*
X0041825Y0015620D01*
X0041825Y0012232D01*
X0044732Y0009325D01*
X0048843Y0009325D01*
X0051750Y0012232D01*
X0051750Y0016343D01*
X0048843Y0019250D01*
X0044732Y0019250D01*
X0043675Y0018192D01*
X0043675Y0019275D01*
X0043675Y0019094D02*
X0044576Y0019094D01*
X0041825Y0014374D02*
X0029249Y0014374D01*
X0029449Y0015947D02*
X0036423Y0015947D01*
X0034900Y0017521D02*
X0029449Y0017521D01*
X0029277Y0019094D02*
X0034900Y0019094D01*
X0034900Y0020667D02*
X0028856Y0020667D01*
X0028259Y0022240D02*
X0036036Y0022240D01*
X0039275Y0022240D02*
X0039300Y0022240D01*
X0039275Y0020667D02*
X0039300Y0020667D01*
X0039275Y0019094D02*
X0039300Y0019094D01*
X0039275Y0017521D02*
X0039300Y0017521D01*
X0039275Y0015947D02*
X0039300Y0015947D01*
X0041825Y0012801D02*
X0028827Y0012801D01*
X0028197Y0011227D02*
X0042830Y0011227D01*
X0044403Y0009654D02*
X0027289Y0009654D01*
X0025987Y0008081D02*
X0155088Y0008081D01*
X0153786Y0009654D02*
X0126055Y0009654D01*
X0125503Y0009425D02*
X0127750Y0010356D01*
X0129469Y0012075D01*
X0130400Y0014322D01*
X0130400Y0024253D01*
X0129469Y0026500D01*
X0127750Y0028219D01*
X0125503Y0029150D01*
X0123072Y0029150D01*
X0120825Y0028219D01*
X0119106Y0026500D01*
X0118175Y0024253D01*
X0118175Y0014322D01*
X0119106Y0012075D01*
X0120825Y0010356D01*
X0123072Y0009425D01*
X0125503Y0009425D01*
X0122519Y0009654D02*
X0096055Y0009654D01*
X0098621Y0011227D02*
X0105799Y0011227D01*
X0105680Y0011314D02*
X0106385Y0010801D01*
X0107162Y0010406D01*
X0107991Y0010136D01*
X0108825Y0010004D01*
X0108825Y0018825D01*
X0109750Y0018825D01*
X0109750Y0019750D01*
X0114825Y0019750D01*
X0114825Y0023473D01*
X0114688Y0024334D01*
X0114419Y0025163D01*
X0114023Y0025940D01*
X0113511Y0026645D01*
X0112895Y0027261D01*
X0112190Y0027773D01*
X0111413Y0028169D01*
X0110584Y0028438D01*
X0109750Y0028571D01*
X0109750Y0019750D01*
X0108825Y0019750D01*
X0108825Y0028571D01*
X0107991Y0028438D01*
X0107162Y0028169D01*
X0106385Y0027773D01*
X0105680Y0027261D01*
X0105064Y0026645D01*
X0104551Y0025940D01*
X0104156Y0025163D01*
X0103886Y0024334D01*
X0103750Y0023473D01*
X0103750Y0019750D01*
X0108825Y0019750D01*
X0108825Y0018825D01*
X0103750Y0018825D01*
X0103750Y0015102D01*
X0103886Y0014241D01*
X0104156Y0013412D01*
X0104551Y0012635D01*
X0105064Y0011930D01*
X0105680Y0011314D01*
X0104467Y0012801D02*
X0099770Y0012801D01*
X0100400Y0014374D02*
X0103865Y0014374D01*
X0103750Y0015947D02*
X0100400Y0015947D01*
X0100400Y0017521D02*
X0103750Y0017521D01*
X0103750Y0020667D02*
X0100400Y0020667D01*
X0100400Y0019094D02*
X0108825Y0019094D01*
X0109750Y0019094D02*
X0118175Y0019094D01*
X0118175Y0020667D02*
X0114825Y0020667D01*
X0114825Y0022240D02*
X0118175Y0022240D01*
X0118175Y0023814D02*
X0114771Y0023814D01*
X0114305Y0025387D02*
X0118645Y0025387D01*
X0119566Y0026960D02*
X0113195Y0026960D01*
X0109750Y0026960D02*
X0108825Y0026960D01*
X0108825Y0025387D02*
X0109750Y0025387D01*
X0109750Y0023814D02*
X0108825Y0023814D01*
X0108825Y0022240D02*
X0109750Y0022240D01*
X0109750Y0020667D02*
X0108825Y0020667D01*
X0109750Y0018825D02*
X0114825Y0018825D01*
X0114825Y0015102D01*
X0114688Y0014241D01*
X0114419Y0013412D01*
X0114023Y0012635D01*
X0113511Y0011930D01*
X0112895Y0011314D01*
X0112190Y0010801D01*
X0111413Y0010406D01*
X0110584Y0010136D01*
X0109750Y0010004D01*
X0109750Y0018825D01*
X0109750Y0017521D02*
X0108825Y0017521D01*
X0108825Y0015947D02*
X0109750Y0015947D01*
X0109750Y0014374D02*
X0108825Y0014374D01*
X0108825Y0012801D02*
X0109750Y0012801D01*
X0109750Y0011227D02*
X0108825Y0011227D01*
X0112776Y0011227D02*
X0119954Y0011227D01*
X0118805Y0012801D02*
X0114108Y0012801D01*
X0114710Y0014374D02*
X0118175Y0014374D01*
X0118175Y0015947D02*
X0114825Y0015947D01*
X0114825Y0017521D02*
X0118175Y0017521D01*
X0121585Y0028534D02*
X0109982Y0028534D01*
X0109750Y0028534D02*
X0108825Y0028534D01*
X0108592Y0028534D02*
X0096990Y0028534D01*
X0096224Y0030107D02*
X0174165Y0030107D01*
X0174165Y0028534D02*
X0169265Y0028534D01*
X0171990Y0026960D02*
X0174165Y0026960D01*
X0174165Y0025387D02*
X0173594Y0025387D01*
X0174165Y0031680D02*
X0096224Y0031680D01*
X0096224Y0033254D02*
X0174165Y0033254D01*
X0174165Y0034827D02*
X0096224Y0034827D01*
X0096224Y0036400D02*
X0174165Y0036400D01*
X0174165Y0037974D02*
X0122868Y0037974D01*
X0125115Y0039547D02*
X0174165Y0039547D01*
X0174165Y0041120D02*
X0126688Y0041120D01*
X0128261Y0042694D02*
X0174165Y0042694D01*
X0174165Y0044267D02*
X0129835Y0044267D01*
X0121846Y0047414D02*
X0083115Y0047414D01*
X0082437Y0048987D02*
X0087680Y0048987D01*
X0088191Y0048775D02*
X0090384Y0048775D01*
X0092410Y0049614D01*
X0093960Y0051165D01*
X0094800Y0053191D01*
X0094800Y0055384D01*
X0093960Y0057410D01*
X0092410Y0058960D01*
X0090384Y0059800D01*
X0088191Y0059800D01*
X0086165Y0058960D01*
X0084614Y0057410D01*
X0083775Y0055384D01*
X0083775Y0053191D01*
X0084614Y0051165D01*
X0086165Y0049614D01*
X0088191Y0048775D01*
X0085219Y0050560D02*
X0082437Y0050560D01*
X0082437Y0052133D02*
X0084213Y0052133D01*
X0083775Y0053707D02*
X0082437Y0053707D01*
X0082437Y0055280D02*
X0083775Y0055280D01*
X0084384Y0056853D02*
X0082437Y0056853D01*
X0082437Y0058427D02*
X0085631Y0058427D01*
X0082437Y0060000D02*
X0121925Y0060000D01*
X0121925Y0058427D02*
X0092943Y0058427D01*
X0094191Y0056853D02*
X0121925Y0056853D01*
X0121925Y0055280D02*
X0094800Y0055280D01*
X0094800Y0053707D02*
X0121925Y0053707D01*
X0121925Y0052133D02*
X0094362Y0052133D01*
X0093356Y0050560D02*
X0121925Y0050560D01*
X0121925Y0048987D02*
X0090895Y0048987D01*
X0096950Y0045840D02*
X0120272Y0045840D01*
X0121925Y0061573D02*
X0082437Y0061573D01*
X0082437Y0063147D02*
X0121925Y0063147D01*
X0121925Y0064720D02*
X0082437Y0064720D01*
X0082437Y0066293D02*
X0121925Y0066293D01*
X0121925Y0067867D02*
X0082437Y0067867D01*
X0082437Y0069440D02*
X0121925Y0069440D01*
X0121925Y0071013D02*
X0082437Y0071013D01*
X0082437Y0072587D02*
X0121925Y0072587D01*
X0121925Y0074160D02*
X0082437Y0074160D01*
X0082437Y0075733D02*
X0121925Y0075733D01*
X0121925Y0077306D02*
X0082437Y0077306D01*
X0082437Y0078880D02*
X0121925Y0078880D01*
X0121925Y0080453D02*
X0082437Y0080453D01*
X0082437Y0082026D02*
X0121925Y0082026D01*
X0121925Y0083600D02*
X0082437Y0083600D01*
X0082437Y0085173D02*
X0121925Y0085173D01*
X0121925Y0086746D02*
X0082437Y0086746D01*
X0082437Y0088320D02*
X0121925Y0088320D01*
X0121925Y0089893D02*
X0110509Y0089893D01*
X0112869Y0091466D02*
X0121925Y0091466D01*
X0121925Y0093040D02*
X0113671Y0093040D01*
X0113815Y0094613D02*
X0121925Y0094613D01*
X0121925Y0096186D02*
X0113401Y0096186D01*
X0114714Y0097760D02*
X0121925Y0097760D01*
X0117860Y0100906D02*
X0174165Y0100906D01*
X0174165Y0099333D02*
X0116287Y0099333D01*
X0116787Y0104287D02*
X0121787Y0104287D01*
X0124287Y0106787D01*
X0124287Y0117102D01*
X0125409Y0118224D01*
X0128389Y0113493D02*
X0130304Y0113493D01*
X0127437Y0111919D02*
X0174165Y0111919D01*
X0174165Y0110346D02*
X0127437Y0110346D01*
X0127437Y0108773D02*
X0174165Y0108773D01*
X0174165Y0107199D02*
X0127437Y0107199D01*
X0127215Y0105626D02*
X0174165Y0105626D01*
X0174165Y0104053D02*
X0126007Y0104053D01*
X0124434Y0102480D02*
X0174165Y0102480D01*
X0174165Y0097760D02*
X0171650Y0097760D01*
X0171650Y0096186D02*
X0174165Y0096186D01*
X0174165Y0094613D02*
X0171650Y0094613D01*
X0171650Y0093040D02*
X0174165Y0093040D01*
X0174165Y0091466D02*
X0171650Y0091466D01*
X0171650Y0089893D02*
X0174165Y0089893D01*
X0174165Y0088320D02*
X0171650Y0088320D01*
X0171650Y0086746D02*
X0174165Y0086746D01*
X0174165Y0085173D02*
X0171650Y0085173D01*
X0171650Y0083600D02*
X0174165Y0083600D01*
X0174165Y0082026D02*
X0171650Y0082026D01*
X0171650Y0080453D02*
X0174165Y0080453D01*
X0174165Y0078880D02*
X0171650Y0078880D01*
X0171650Y0077306D02*
X0174165Y0077306D01*
X0174165Y0075733D02*
X0171650Y0075733D01*
X0171650Y0074160D02*
X0174165Y0074160D01*
X0174165Y0072587D02*
X0171650Y0072587D01*
X0171650Y0071013D02*
X0174165Y0071013D01*
X0174165Y0069440D02*
X0171650Y0069440D01*
X0171650Y0067867D02*
X0174165Y0067867D01*
X0174165Y0066293D02*
X0171650Y0066293D01*
X0171650Y0064720D02*
X0174165Y0064720D01*
X0174165Y0063147D02*
X0171650Y0063147D01*
X0171650Y0061573D02*
X0174165Y0061573D01*
X0174165Y0060000D02*
X0171650Y0060000D01*
X0171650Y0058427D02*
X0174165Y0058427D01*
X0174165Y0056853D02*
X0171650Y0056853D01*
X0171650Y0055280D02*
X0174165Y0055280D01*
X0174165Y0053707D02*
X0171650Y0053707D01*
X0171650Y0052133D02*
X0174165Y0052133D01*
X0174165Y0050560D02*
X0171650Y0050560D01*
X0171650Y0048987D02*
X0174165Y0048987D01*
X0174165Y0047414D02*
X0171650Y0047414D01*
X0171650Y0045840D02*
X0174165Y0045840D01*
X0159310Y0028534D02*
X0139982Y0028534D01*
X0139750Y0028534D02*
X0138825Y0028534D01*
X0138825Y0028571D02*
X0137991Y0028438D01*
X0137162Y0028169D01*
X0136385Y0027773D01*
X0135680Y0027261D01*
X0135064Y0026645D01*
X0134551Y0025940D01*
X0134156Y0025163D01*
X0133886Y0024334D01*
X0133750Y0023473D01*
X0133750Y0019750D01*
X0138825Y0019750D01*
X0138825Y0028571D01*
X0138592Y0028534D02*
X0126990Y0028534D01*
X0129008Y0026960D02*
X0135379Y0026960D01*
X0134270Y0025387D02*
X0129930Y0025387D01*
X0130400Y0023814D02*
X0133804Y0023814D01*
X0133750Y0022240D02*
X0130400Y0022240D01*
X0130400Y0020667D02*
X0133750Y0020667D01*
X0133750Y0018825D02*
X0133750Y0015102D01*
X0133886Y0014241D01*
X0134156Y0013412D01*
X0134551Y0012635D01*
X0135064Y0011930D01*
X0135680Y0011314D01*
X0136385Y0010801D01*
X0137162Y0010406D01*
X0137991Y0010136D01*
X0138825Y0010004D01*
X0138825Y0018825D01*
X0139750Y0018825D01*
X0139750Y0019750D01*
X0144825Y0019750D01*
X0144825Y0023473D01*
X0144688Y0024334D01*
X0144419Y0025163D01*
X0144023Y0025940D01*
X0143511Y0026645D01*
X0142895Y0027261D01*
X0142190Y0027773D01*
X0141413Y0028169D01*
X0140584Y0028438D01*
X0139750Y0028571D01*
X0139750Y0019750D01*
X0138825Y0019750D01*
X0138825Y0018825D01*
X0133750Y0018825D01*
X0133750Y0017521D02*
X0130400Y0017521D01*
X0130400Y0019094D02*
X0138825Y0019094D01*
X0139750Y0019094D02*
X0151797Y0019094D01*
X0151626Y0017521D02*
X0144825Y0017521D01*
X0144825Y0018825D02*
X0139750Y0018825D01*
X0139750Y0010004D01*
X0140584Y0010136D01*
X0141413Y0010406D01*
X0142190Y0010801D01*
X0142895Y0011314D01*
X0143511Y0011930D01*
X0144023Y0012635D01*
X0144419Y0013412D01*
X0144688Y0014241D01*
X0144825Y0015102D01*
X0144825Y0018825D01*
X0144825Y0020667D02*
X0152219Y0020667D01*
X0152816Y0022240D02*
X0144825Y0022240D01*
X0144771Y0023814D02*
X0153724Y0023814D01*
X0154981Y0025387D02*
X0144305Y0025387D01*
X0143195Y0026960D02*
X0156585Y0026960D01*
X0151626Y0015947D02*
X0144825Y0015947D01*
X0144710Y0014374D02*
X0151826Y0014374D01*
X0152248Y0012801D02*
X0144108Y0012801D01*
X0142776Y0011227D02*
X0152877Y0011227D01*
X0139750Y0011227D02*
X0138825Y0011227D01*
X0138825Y0012801D02*
X0139750Y0012801D01*
X0139750Y0014374D02*
X0138825Y0014374D01*
X0138825Y0015947D02*
X0139750Y0015947D01*
X0139750Y0017521D02*
X0138825Y0017521D01*
X0138825Y0020667D02*
X0139750Y0020667D01*
X0139750Y0022240D02*
X0138825Y0022240D01*
X0138825Y0023814D02*
X0139750Y0023814D01*
X0139750Y0025387D02*
X0138825Y0025387D01*
X0138825Y0026960D02*
X0139750Y0026960D01*
X0133750Y0015947D02*
X0130400Y0015947D01*
X0130400Y0014374D02*
X0133865Y0014374D01*
X0134467Y0012801D02*
X0129770Y0012801D01*
X0128621Y0011227D02*
X0135799Y0011227D01*
X0105379Y0026960D02*
X0099008Y0026960D01*
X0099930Y0025387D02*
X0104270Y0025387D01*
X0103804Y0023814D02*
X0100400Y0023814D01*
X0100400Y0022240D02*
X0103750Y0022240D01*
X0094287Y0019287D02*
X0084287Y0029287D01*
X0066787Y0029287D01*
X0060537Y0023037D01*
X0064287Y0019287D01*
X0060537Y0023037D02*
X0059287Y0024287D01*
X0051787Y0024287D01*
X0051787Y0036287D01*
X0052287Y0036787D01*
X0071787Y0056287D01*
X0071787Y0061787D01*
X0066470Y0060222D02*
X0067115Y0058665D01*
X0068413Y0057367D01*
X0053345Y0042300D01*
X0049937Y0042300D01*
X0049937Y0043534D01*
X0050626Y0044223D01*
X0051315Y0045887D01*
X0051315Y0047688D01*
X0050626Y0049352D01*
X0049937Y0050041D01*
X0049937Y0152983D01*
X0053092Y0156138D01*
X0058599Y0156138D01*
X0057268Y0154807D01*
X0056457Y0152848D01*
X0056457Y0150727D01*
X0057268Y0148768D01*
X0058768Y0147268D01*
X0059929Y0146787D01*
X0058768Y0146307D01*
X0057268Y0144807D01*
X0056457Y0142848D01*
X0056457Y0140727D01*
X0057268Y0138768D01*
X0058768Y0137268D01*
X0060727Y0136457D01*
X0062848Y0136457D01*
X0064807Y0137268D01*
X0066307Y0138768D01*
X0067118Y0140727D01*
X0067118Y0142848D01*
X0066307Y0144807D01*
X0064807Y0146307D01*
X0063646Y0146787D01*
X0064807Y0147268D01*
X0066307Y0148768D01*
X0067118Y0150727D01*
X0067118Y0152848D01*
X0066307Y0154807D01*
X0064976Y0156138D01*
X0066457Y0156138D01*
X0066457Y0155727D01*
X0067268Y0153768D01*
X0068768Y0152268D01*
X0069929Y0151787D01*
X0068768Y0151307D01*
X0067268Y0149807D01*
X0066457Y0147848D01*
X0066457Y0145727D01*
X0067268Y0143768D01*
X0068768Y0142268D01*
X0069929Y0141787D01*
X0068768Y0141307D01*
X0067268Y0139807D01*
X0066457Y0137848D01*
X0066457Y0135727D01*
X0067268Y0133768D01*
X0068768Y0132268D01*
X0069929Y0131787D01*
X0068768Y0131307D01*
X0067268Y0129807D01*
X0066457Y0127848D01*
X0066457Y0125727D01*
X0067268Y0123768D01*
X0068768Y0122268D01*
X0069929Y0121787D01*
X0068768Y0121307D01*
X0067268Y0119807D01*
X0066457Y0117848D01*
X0066457Y0115727D01*
X0067268Y0113768D01*
X0068768Y0112268D01*
X0069929Y0111787D01*
X0068768Y0111307D01*
X0067268Y0109807D01*
X0066457Y0107848D01*
X0066457Y0105727D01*
X0067268Y0103768D01*
X0068768Y0102268D01*
X0069929Y0101787D01*
X0068768Y0101307D01*
X0067268Y0099807D01*
X0066457Y0097848D01*
X0066457Y0095727D01*
X0067268Y0093768D01*
X0068768Y0092268D01*
X0069929Y0091787D01*
X0068768Y0091307D01*
X0067268Y0089807D01*
X0066457Y0087848D01*
X0066457Y0085727D01*
X0067268Y0083768D01*
X0068768Y0082268D01*
X0069929Y0081787D01*
X0068768Y0081307D01*
X0067398Y0079937D01*
X0063092Y0079937D01*
X0062437Y0080592D01*
X0062437Y0128534D01*
X0063126Y0129223D01*
X0063815Y0130887D01*
X0063815Y0132688D01*
X0063126Y0134352D01*
X0061852Y0135626D01*
X0060188Y0136315D01*
X0058387Y0136315D01*
X0056723Y0135626D01*
X0055449Y0134352D01*
X0054760Y0132688D01*
X0054760Y0130887D01*
X0055449Y0129223D01*
X0056138Y0128534D01*
X0056138Y0078661D01*
X0056617Y0077503D01*
X0057503Y0076617D01*
X0060003Y0074117D01*
X0061161Y0073638D01*
X0067398Y0073638D01*
X0068768Y0072268D01*
X0070727Y0071457D01*
X0072848Y0071457D01*
X0074807Y0072268D01*
X0076138Y0073599D01*
X0076138Y0065232D01*
X0074910Y0066460D01*
X0072884Y0067299D01*
X0070691Y0067299D01*
X0068665Y0066460D01*
X0067115Y0064910D01*
X0066470Y0063353D01*
X0066363Y0063683D01*
X0066010Y0064375D01*
X0065553Y0065004D01*
X0065004Y0065553D01*
X0064375Y0066010D01*
X0063683Y0066363D01*
X0062943Y0066603D01*
X0062176Y0066724D01*
X0061787Y0066724D01*
X0061399Y0066724D01*
X0060631Y0066603D01*
X0059892Y0066363D01*
X0059200Y0066010D01*
X0058571Y0065553D01*
X0058022Y0065004D01*
X0057565Y0064375D01*
X0057212Y0063683D01*
X0056972Y0062943D01*
X0056850Y0062176D01*
X0056850Y0061787D01*
X0056850Y0061399D01*
X0056972Y0060631D01*
X0057212Y0059892D01*
X0057565Y0059200D01*
X0058022Y0058571D01*
X0058571Y0058022D01*
X0059200Y0057565D01*
X0059892Y0057212D01*
X0060631Y0056972D01*
X0061399Y0056850D01*
X0061787Y0056850D01*
X0061787Y0061787D01*
X0061787Y0061787D01*
X0056850Y0061787D01*
X0061787Y0061787D01*
X0061787Y0061787D01*
X0061787Y0056850D01*
X0062176Y0056850D01*
X0062943Y0056972D01*
X0063683Y0057212D01*
X0064375Y0057565D01*
X0065004Y0058022D01*
X0065553Y0058571D01*
X0066010Y0059200D01*
X0066363Y0059892D01*
X0066470Y0060222D01*
X0066398Y0060000D02*
X0066562Y0060000D01*
X0067353Y0058427D02*
X0065409Y0058427D01*
X0067899Y0056853D02*
X0062195Y0056853D01*
X0061787Y0056853D02*
X0061787Y0056853D01*
X0061380Y0056853D02*
X0049937Y0056853D01*
X0049937Y0055280D02*
X0066326Y0055280D01*
X0064753Y0053707D02*
X0049937Y0053707D01*
X0049937Y0052133D02*
X0063179Y0052133D01*
X0061606Y0050560D02*
X0049937Y0050560D01*
X0050777Y0048987D02*
X0060033Y0048987D01*
X0058459Y0047414D02*
X0051315Y0047414D01*
X0051296Y0045840D02*
X0056886Y0045840D01*
X0055313Y0044267D02*
X0050644Y0044267D01*
X0049937Y0042694D02*
X0053739Y0042694D01*
X0046787Y0046787D02*
X0046787Y0037287D01*
X0046287Y0036787D01*
X0041830Y0041120D02*
X0033696Y0041120D01*
X0033934Y0039547D02*
X0041625Y0039547D01*
X0041625Y0037974D02*
X0033834Y0037974D01*
X0033183Y0036400D02*
X0041625Y0036400D01*
X0043638Y0042694D02*
X0033044Y0042694D01*
X0031475Y0044267D02*
X0042931Y0044267D01*
X0042279Y0045840D02*
X0031418Y0045840D01*
X0031418Y0047414D02*
X0042260Y0047414D01*
X0042798Y0048987D02*
X0031418Y0048987D01*
X0031418Y0050560D02*
X0043638Y0050560D01*
X0043638Y0052133D02*
X0031418Y0052133D01*
X0031418Y0053707D02*
X0043638Y0053707D01*
X0043638Y0055280D02*
X0031418Y0055280D01*
X0031418Y0056853D02*
X0043638Y0056853D01*
X0043638Y0058427D02*
X0031418Y0058427D01*
X0031785Y0060000D02*
X0043638Y0060000D01*
X0043638Y0061573D02*
X0033288Y0061573D01*
X0033940Y0063147D02*
X0043638Y0063147D01*
X0043638Y0064720D02*
X0034131Y0064720D01*
X0033984Y0066293D02*
X0043638Y0066293D01*
X0043638Y0067867D02*
X0033333Y0067867D01*
X0032437Y0069440D02*
X0043638Y0069440D01*
X0043638Y0071013D02*
X0032437Y0071013D01*
X0032437Y0072587D02*
X0043638Y0072587D01*
X0043638Y0074160D02*
X0032437Y0074160D01*
X0032437Y0075733D02*
X0043638Y0075733D01*
X0043638Y0077306D02*
X0032437Y0077306D01*
X0032437Y0078880D02*
X0043638Y0078880D01*
X0043638Y0080453D02*
X0032214Y0080453D01*
X0031003Y0082026D02*
X0043638Y0082026D01*
X0043638Y0083600D02*
X0029429Y0083600D01*
X0027856Y0085173D02*
X0043638Y0085173D01*
X0043638Y0086746D02*
X0026283Y0086746D01*
X0024709Y0088320D02*
X0043638Y0088320D01*
X0043638Y0089893D02*
X0022520Y0089893D01*
X0016657Y0094613D02*
X0043638Y0094613D01*
X0043638Y0096186D02*
X0017118Y0096186D01*
X0017118Y0097760D02*
X0043638Y0097760D01*
X0043638Y0099333D02*
X0016503Y0099333D01*
X0015207Y0100906D02*
X0043638Y0100906D01*
X0043638Y0102480D02*
X0015018Y0102480D01*
X0016425Y0104053D02*
X0043638Y0104053D01*
X0043638Y0105626D02*
X0017076Y0105626D01*
X0017118Y0107199D02*
X0043638Y0107199D01*
X0043638Y0108773D02*
X0016735Y0108773D01*
X0015767Y0110346D02*
X0043638Y0110346D01*
X0043638Y0111919D02*
X0013965Y0111919D01*
X0016031Y0113493D02*
X0043638Y0113493D01*
X0043638Y0115066D02*
X0016844Y0115066D01*
X0017118Y0116639D02*
X0043638Y0116639D01*
X0043638Y0118213D02*
X0016967Y0118213D01*
X0016315Y0119786D02*
X0043638Y0119786D01*
X0043638Y0121359D02*
X0014680Y0121359D01*
X0015471Y0122933D02*
X0043638Y0122933D01*
X0043638Y0124506D02*
X0016612Y0124506D01*
X0017118Y0126079D02*
X0043638Y0126079D01*
X0043638Y0127653D02*
X0017118Y0127653D01*
X0016547Y0129226D02*
X0043638Y0129226D01*
X0043638Y0130799D02*
X0015314Y0130799D01*
X0014911Y0132373D02*
X0043638Y0132373D01*
X0043638Y0133946D02*
X0020658Y0133946D01*
X0021957Y0135003D02*
X0021957Y0135003D01*
X0022473Y0135519D02*
X0043638Y0135519D01*
X0043638Y0137092D02*
X0024047Y0137092D01*
X0025620Y0138666D02*
X0043638Y0138666D01*
X0043638Y0140239D02*
X0027055Y0140239D01*
X0027437Y0141812D02*
X0043638Y0141812D01*
X0043638Y0143386D02*
X0027437Y0143386D01*
X0027437Y0144959D02*
X0043638Y0144959D01*
X0043638Y0146532D02*
X0027437Y0146532D01*
X0027437Y0148106D02*
X0043638Y0148106D01*
X0043638Y0149679D02*
X0027437Y0149679D01*
X0027437Y0151252D02*
X0043638Y0151252D01*
X0043638Y0152826D02*
X0027437Y0152826D01*
X0027437Y0154399D02*
X0043638Y0154399D01*
X0044076Y0155972D02*
X0027437Y0155972D01*
X0027437Y0157546D02*
X0045591Y0157546D01*
X0047165Y0159119D02*
X0027437Y0159119D01*
X0027437Y0160692D02*
X0048738Y0160692D01*
X0050747Y0162265D02*
X0027437Y0162265D01*
X0027437Y0163839D02*
X0067239Y0163839D01*
X0066587Y0165412D02*
X0027437Y0165412D01*
X0027437Y0166985D02*
X0066457Y0166985D01*
X0066751Y0168559D02*
X0027462Y0168559D01*
X0028502Y0170132D02*
X0067593Y0170132D01*
X0069731Y0171705D02*
X0028815Y0171705D01*
X0028570Y0173279D02*
X0068570Y0173279D01*
X0067436Y0174852D02*
X0027626Y0174852D01*
X0024287Y0171787D02*
X0024287Y0141787D01*
X0019287Y0136787D01*
X0011787Y0136787D01*
X0015874Y0140239D02*
X0018285Y0140239D01*
X0019858Y0141812D02*
X0013706Y0141812D01*
X0015924Y0143386D02*
X0021138Y0143386D01*
X0021138Y0144959D02*
X0016800Y0144959D01*
X0017118Y0146532D02*
X0021138Y0146532D01*
X0021138Y0148106D02*
X0017011Y0148106D01*
X0016360Y0149679D02*
X0021138Y0149679D01*
X0021138Y0151252D02*
X0014861Y0151252D01*
X0014426Y0152826D02*
X0021138Y0152826D01*
X0021138Y0154399D02*
X0015908Y0154399D01*
X0016473Y0155972D02*
X0021138Y0155972D01*
X0021138Y0157546D02*
X0016483Y0157546D01*
X0015937Y0159119D02*
X0021138Y0159119D01*
X0021138Y0160692D02*
X0014504Y0160692D01*
X0014800Y0162265D02*
X0021138Y0162265D01*
X0021138Y0163839D02*
X0016336Y0163839D01*
X0016988Y0165412D02*
X0021138Y0165412D01*
X0021138Y0166985D02*
X0017118Y0166985D01*
X0016824Y0168559D02*
X0021113Y0168559D01*
X0020072Y0170132D02*
X0015981Y0170132D01*
X0013844Y0171705D02*
X0019760Y0171705D01*
X0020005Y0173279D02*
X0015817Y0173279D01*
X0016756Y0174852D02*
X0020949Y0174852D01*
X0017118Y0176425D02*
X0067031Y0176425D01*
X0067180Y0177999D02*
X0017056Y0177999D01*
X0016404Y0179572D02*
X0067932Y0179572D01*
X0069864Y0181145D02*
X0014968Y0181145D01*
X0015257Y0182719D02*
X0068317Y0182719D01*
X0067051Y0184292D02*
X0016524Y0184292D01*
X0017118Y0185865D02*
X0066457Y0185865D01*
X0066457Y0187439D02*
X0017118Y0187439D01*
X0016636Y0189012D02*
X0066939Y0189012D01*
X0068046Y0190585D02*
X0015528Y0190585D01*
X0008046Y0190585D02*
X0006575Y0190585D01*
X0006575Y0189012D02*
X0006939Y0189012D01*
X0006575Y0192158D02*
X0138913Y0192158D01*
X0138035Y0191795D02*
X0136814Y0190573D01*
X0136500Y0190888D01*
X0135871Y0191345D01*
X0135179Y0191697D01*
X0134440Y0191937D01*
X0133672Y0192059D01*
X0133284Y0192059D01*
X0133284Y0187122D01*
X0133284Y0182185D01*
X0133672Y0182185D01*
X0134440Y0182307D01*
X0135179Y0182547D01*
X0135871Y0182900D01*
X0136500Y0183356D01*
X0136814Y0183671D01*
X0138035Y0182449D01*
X0140061Y0181610D01*
X0142254Y0181610D01*
X0144280Y0182449D01*
X0145501Y0183671D01*
X0145815Y0183356D01*
X0146444Y0182900D01*
X0147136Y0182547D01*
X0147875Y0182307D01*
X0148643Y0182185D01*
X0149031Y0182185D01*
X0149031Y0187122D01*
X0149032Y0187122D01*
X0149032Y0187122D01*
X0153968Y0187122D01*
X0153968Y0187511D01*
X0153847Y0188278D01*
X0153607Y0189017D01*
X0153254Y0189710D01*
X0152797Y0190338D01*
X0152248Y0190888D01*
X0151619Y0191345D01*
X0150927Y0191697D01*
X0150188Y0191937D01*
X0149420Y0192059D01*
X0149032Y0192059D01*
X0149032Y0187122D01*
X0153968Y0187122D01*
X0153968Y0186733D01*
X0153847Y0185966D01*
X0153607Y0185227D01*
X0153254Y0184534D01*
X0152797Y0183906D01*
X0152248Y0183356D01*
X0151619Y0182900D01*
X0150927Y0182547D01*
X0150188Y0182307D01*
X0149420Y0182185D01*
X0149032Y0182185D01*
X0149032Y0187122D01*
X0149031Y0187122D01*
X0149031Y0192059D01*
X0148643Y0192059D01*
X0147875Y0191937D01*
X0147136Y0191697D01*
X0146444Y0191345D01*
X0145815Y0190888D01*
X0145501Y0190573D01*
X0144280Y0191795D01*
X0142254Y0192634D01*
X0140061Y0192634D01*
X0138035Y0191795D01*
X0136826Y0190585D02*
X0136802Y0190585D01*
X0133284Y0190585D02*
X0133283Y0190585D01*
X0133283Y0192059D02*
X0133283Y0187122D01*
X0128346Y0187122D01*
X0128346Y0186733D01*
X0128468Y0185966D01*
X0128708Y0185227D01*
X0129061Y0184534D01*
X0129518Y0183906D01*
X0130067Y0183356D01*
X0130696Y0182900D01*
X0131388Y0182547D01*
X0132127Y0182307D01*
X0132895Y0182185D01*
X0133283Y0182185D01*
X0133283Y0187122D01*
X0133283Y0187122D01*
X0128346Y0187122D01*
X0128346Y0187511D01*
X0128468Y0188278D01*
X0128708Y0189017D01*
X0129061Y0189710D01*
X0129518Y0190338D01*
X0130067Y0190888D01*
X0130696Y0191345D01*
X0131388Y0191697D01*
X0132127Y0191937D01*
X0132895Y0192059D01*
X0133283Y0192059D01*
X0133283Y0189012D02*
X0133284Y0189012D01*
X0133283Y0187439D02*
X0133284Y0187439D01*
X0133284Y0187122D02*
X0133283Y0187122D01*
X0133284Y0187122D01*
X0133283Y0185865D02*
X0133284Y0185865D01*
X0133283Y0184292D02*
X0133284Y0184292D01*
X0133283Y0182719D02*
X0133284Y0182719D01*
X0135516Y0182719D02*
X0137766Y0182719D01*
X0144549Y0182719D02*
X0146799Y0182719D01*
X0149031Y0182719D02*
X0149032Y0182719D01*
X0149031Y0184292D02*
X0149032Y0184292D01*
X0149031Y0185865D02*
X0149032Y0185865D01*
X0149031Y0187439D02*
X0149032Y0187439D01*
X0149031Y0189012D02*
X0149032Y0189012D01*
X0149031Y0190585D02*
X0149032Y0190585D01*
X0152550Y0190585D02*
X0174165Y0190585D01*
X0174165Y0189012D02*
X0153609Y0189012D01*
X0153968Y0187439D02*
X0174165Y0187439D01*
X0174165Y0185865D02*
X0153814Y0185865D01*
X0153078Y0184292D02*
X0174165Y0184292D01*
X0174165Y0182719D02*
X0151264Y0182719D01*
X0145513Y0190585D02*
X0145489Y0190585D01*
X0143402Y0192158D02*
X0174165Y0192158D01*
X0174165Y0193732D02*
X0006575Y0193732D01*
X0006575Y0195305D02*
X0174165Y0195305D01*
X0174165Y0196878D02*
X0006575Y0196878D01*
X0006575Y0198452D02*
X0174165Y0198452D01*
X0174165Y0200025D02*
X0092820Y0200025D01*
X0092410Y0199614D02*
X0093960Y0201165D01*
X0094800Y0203191D01*
X0094800Y0205384D01*
X0093960Y0207410D01*
X0092410Y0208960D01*
X0090384Y0209800D01*
X0088191Y0209800D01*
X0086165Y0208960D01*
X0084614Y0207410D01*
X0083775Y0205384D01*
X0083775Y0203191D01*
X0084614Y0201165D01*
X0086165Y0199614D01*
X0088191Y0198775D01*
X0090384Y0198775D01*
X0092410Y0199614D01*
X0094140Y0201598D02*
X0174165Y0201598D01*
X0174165Y0203172D02*
X0094792Y0203172D01*
X0094800Y0204745D02*
X0174165Y0204745D01*
X0174165Y0206318D02*
X0139686Y0206318D01*
X0140278Y0206563D02*
X0142011Y0208297D01*
X0142950Y0210562D01*
X0142950Y0213013D01*
X0142011Y0215278D01*
X0140278Y0217011D01*
X0138013Y0217950D01*
X0135562Y0217950D01*
X0133297Y0217011D01*
X0131563Y0215278D01*
X0130625Y0213013D01*
X0130625Y0210562D01*
X0131563Y0208297D01*
X0133297Y0206563D01*
X0135562Y0205625D01*
X0138013Y0205625D01*
X0140278Y0206563D01*
X0141606Y0207892D02*
X0174165Y0207892D01*
X0174165Y0209465D02*
X0142495Y0209465D01*
X0142950Y0211038D02*
X0174165Y0211038D01*
X0174165Y0212612D02*
X0169387Y0212612D01*
X0172091Y0214185D02*
X0174165Y0214185D01*
X0174165Y0215758D02*
X0173664Y0215758D01*
X0159188Y0212612D02*
X0142950Y0212612D01*
X0142464Y0214185D02*
X0156484Y0214185D01*
X0154911Y0215758D02*
X0141531Y0215758D01*
X0139505Y0217331D02*
X0153683Y0217331D01*
X0152775Y0218905D02*
X0099059Y0218905D01*
X0098960Y0218665D02*
X0099799Y0220691D01*
X0099799Y0222884D01*
X0098960Y0224910D01*
X0097410Y0226460D01*
X0095384Y0227299D01*
X0093191Y0227299D01*
X0091165Y0226460D01*
X0089615Y0224910D01*
X0088970Y0223353D01*
X0088863Y0223683D01*
X0088510Y0224375D01*
X0088053Y0225004D01*
X0087504Y0225553D01*
X0086875Y0226010D01*
X0086183Y0226363D01*
X0085443Y0226603D01*
X0084676Y0226724D01*
X0084287Y0226724D01*
X0083899Y0226724D01*
X0083131Y0226603D01*
X0082392Y0226363D01*
X0081700Y0226010D01*
X0081071Y0225553D01*
X0080522Y0225004D01*
X0080065Y0224375D01*
X0079712Y0223683D01*
X0079472Y0222943D01*
X0079350Y0222176D01*
X0079350Y0221787D01*
X0079350Y0221399D01*
X0079472Y0220631D01*
X0079712Y0219892D01*
X0080065Y0219200D01*
X0080522Y0218571D01*
X0081071Y0218022D01*
X0081700Y0217565D01*
X0082392Y0217212D01*
X0083131Y0216972D01*
X0083899Y0216850D01*
X0084287Y0216850D01*
X0084287Y0221787D01*
X0084287Y0221787D01*
X0079350Y0221787D01*
X0084287Y0221787D01*
X0084287Y0221787D01*
X0084287Y0216850D01*
X0084676Y0216850D01*
X0085443Y0216972D01*
X0086183Y0217212D01*
X0086875Y0217565D01*
X0087504Y0218022D01*
X0088053Y0218571D01*
X0088510Y0219200D01*
X0088863Y0219892D01*
X0088970Y0220222D01*
X0089615Y0218665D01*
X0091165Y0217115D01*
X0093191Y0216276D01*
X0095384Y0216276D01*
X0097410Y0217115D01*
X0098960Y0218665D01*
X0097626Y0217331D02*
X0134069Y0217331D01*
X0132044Y0215758D02*
X0026164Y0215758D01*
X0027392Y0217331D02*
X0037158Y0217331D01*
X0037392Y0217212D02*
X0038131Y0216972D01*
X0038899Y0216850D01*
X0039287Y0216850D01*
X0039287Y0221787D01*
X0039287Y0221787D01*
X0034350Y0221787D01*
X0034350Y0221399D01*
X0034472Y0220631D01*
X0034712Y0219892D01*
X0035065Y0219200D01*
X0035522Y0218571D01*
X0036071Y0218022D01*
X0036700Y0217565D01*
X0037392Y0217212D01*
X0039287Y0217331D02*
X0039287Y0217331D01*
X0039287Y0216850D02*
X0039676Y0216850D01*
X0040443Y0216972D01*
X0041183Y0217212D01*
X0041875Y0217565D01*
X0042504Y0218022D01*
X0043053Y0218571D01*
X0043510Y0219200D01*
X0043863Y0219892D01*
X0043970Y0220222D01*
X0044615Y0218665D01*
X0046165Y0217115D01*
X0048191Y0216276D01*
X0050384Y0216276D01*
X0052410Y0217115D01*
X0053960Y0218665D01*
X0054799Y0220691D01*
X0054799Y0222884D01*
X0053960Y0224910D01*
X0052410Y0226460D01*
X0050384Y0227299D01*
X0048191Y0227299D01*
X0046165Y0226460D01*
X0044615Y0224910D01*
X0043970Y0223353D01*
X0043863Y0223683D01*
X0043510Y0224375D01*
X0043053Y0225004D01*
X0042504Y0225553D01*
X0041875Y0226010D01*
X0041183Y0226363D01*
X0040443Y0226603D01*
X0039676Y0226724D01*
X0039287Y0226724D01*
X0038899Y0226724D01*
X0038131Y0226603D01*
X0037392Y0226363D01*
X0036700Y0226010D01*
X0036071Y0225553D01*
X0035522Y0225004D01*
X0035065Y0224375D01*
X0034712Y0223683D01*
X0034472Y0222943D01*
X0034350Y0222176D01*
X0034350Y0221787D01*
X0039287Y0221787D01*
X0039287Y0221787D01*
X0039287Y0216850D01*
X0039287Y0218905D02*
X0039287Y0218905D01*
X0039287Y0220478D02*
X0039287Y0220478D01*
X0039287Y0221788D02*
X0039287Y0226724D01*
X0039287Y0221788D01*
X0039287Y0221788D01*
X0039287Y0222051D02*
X0039287Y0222051D01*
X0039287Y0223625D02*
X0039287Y0223625D01*
X0039287Y0225198D02*
X0039287Y0225198D01*
X0035716Y0225198D02*
X0029449Y0225198D01*
X0029449Y0223625D02*
X0034693Y0223625D01*
X0034350Y0222051D02*
X0029296Y0222051D01*
X0028875Y0220478D02*
X0034522Y0220478D01*
X0035279Y0218905D02*
X0028300Y0218905D01*
X0024591Y0214185D02*
X0131111Y0214185D01*
X0130625Y0212612D02*
X0021887Y0212612D01*
X0011688Y0212612D02*
X0006575Y0212612D01*
X0006575Y0214185D02*
X0008984Y0214185D01*
X0007411Y0215758D02*
X0006575Y0215758D01*
X0006575Y0211038D02*
X0130625Y0211038D01*
X0131079Y0209465D02*
X0091192Y0209465D01*
X0093479Y0207892D02*
X0131969Y0207892D01*
X0133888Y0206318D02*
X0094413Y0206318D01*
X0087383Y0209465D02*
X0006575Y0209465D01*
X0006575Y0207892D02*
X0085096Y0207892D01*
X0084162Y0206318D02*
X0006575Y0206318D01*
X0006575Y0204745D02*
X0083775Y0204745D01*
X0083783Y0203172D02*
X0006575Y0203172D01*
X0006575Y0201598D02*
X0084435Y0201598D01*
X0085754Y0200025D02*
X0006575Y0200025D01*
X0028808Y0228345D02*
X0152266Y0228345D01*
X0151845Y0226771D02*
X0096658Y0226771D01*
X0098672Y0225198D02*
X0151626Y0225198D01*
X0151626Y0223625D02*
X0099492Y0223625D01*
X0099799Y0222051D02*
X0151778Y0222051D01*
X0152200Y0220478D02*
X0099711Y0220478D01*
X0090948Y0217331D02*
X0086417Y0217331D01*
X0084287Y0217331D02*
X0084287Y0217331D01*
X0084287Y0218905D02*
X0084287Y0218905D01*
X0084287Y0220478D02*
X0084287Y0220478D01*
X0084287Y0221788D02*
X0084287Y0226724D01*
X0084287Y0221788D01*
X0084287Y0221788D01*
X0084287Y0222051D02*
X0084287Y0222051D01*
X0084287Y0223625D02*
X0084287Y0223625D01*
X0084287Y0225198D02*
X0084287Y0225198D01*
X0080716Y0225198D02*
X0053672Y0225198D01*
X0054492Y0223625D02*
X0079693Y0223625D01*
X0079350Y0222051D02*
X0054799Y0222051D01*
X0054711Y0220478D02*
X0079522Y0220478D01*
X0080279Y0218905D02*
X0054059Y0218905D01*
X0052626Y0217331D02*
X0082158Y0217331D01*
X0088296Y0218905D02*
X0089515Y0218905D01*
X0089083Y0223625D02*
X0088881Y0223625D01*
X0087859Y0225198D02*
X0089903Y0225198D01*
X0091917Y0226771D02*
X0051658Y0226771D01*
X0046917Y0226771D02*
X0029230Y0226771D01*
X0028157Y0229918D02*
X0152918Y0229918D01*
X0153826Y0231491D02*
X0027248Y0231491D01*
X0025916Y0233065D02*
X0155159Y0233065D01*
X0129765Y0190585D02*
X0075528Y0190585D01*
X0076636Y0189012D02*
X0128706Y0189012D01*
X0128346Y0187439D02*
X0078090Y0187439D01*
X0079664Y0185865D02*
X0128501Y0185865D01*
X0129237Y0184292D02*
X0081237Y0184292D01*
X0082311Y0182719D02*
X0131051Y0182719D01*
X0110483Y0157546D02*
X0174165Y0157546D01*
X0174165Y0159119D02*
X0108910Y0159119D01*
X0112057Y0155972D02*
X0174165Y0155972D01*
X0174165Y0154399D02*
X0112811Y0154399D01*
X0112811Y0152826D02*
X0174165Y0152826D01*
X0174165Y0151252D02*
X0112811Y0151252D01*
X0112811Y0149679D02*
X0174165Y0149679D01*
X0174165Y0148106D02*
X0112811Y0148106D01*
X0112811Y0146532D02*
X0174165Y0146532D01*
X0174165Y0144959D02*
X0112811Y0144959D01*
X0112811Y0143386D02*
X0174165Y0143386D01*
X0174165Y0141812D02*
X0112811Y0141812D01*
X0112811Y0140239D02*
X0174165Y0140239D01*
X0174165Y0138666D02*
X0112811Y0138666D01*
X0112811Y0137092D02*
X0174165Y0137092D01*
X0174165Y0135519D02*
X0112811Y0135519D01*
X0112811Y0133946D02*
X0174165Y0133946D01*
X0174165Y0132373D02*
X0112811Y0132373D01*
X0112811Y0130799D02*
X0174165Y0130799D01*
X0174165Y0129226D02*
X0112811Y0129226D01*
X0112811Y0127653D02*
X0174165Y0127653D01*
X0174165Y0126079D02*
X0112811Y0126079D01*
X0112811Y0124506D02*
X0174165Y0124506D01*
X0174165Y0122933D02*
X0167816Y0122933D01*
X0169439Y0121359D02*
X0174165Y0121359D01*
X0174165Y0119786D02*
X0170099Y0119786D01*
X0170291Y0118213D02*
X0174165Y0118213D01*
X0174165Y0116639D02*
X0170089Y0116639D01*
X0169416Y0115066D02*
X0174165Y0115066D01*
X0174165Y0113493D02*
X0167759Y0113493D01*
X0161800Y0113493D02*
X0159885Y0113493D01*
X0153926Y0113493D02*
X0152011Y0113493D01*
X0146052Y0113493D02*
X0144137Y0113493D01*
X0138178Y0113493D02*
X0136263Y0113493D01*
X0136320Y0122933D02*
X0138121Y0122933D01*
X0144194Y0122933D02*
X0145995Y0122933D01*
X0152068Y0122933D02*
X0153869Y0122933D01*
X0159942Y0122933D02*
X0161743Y0122933D01*
X0174165Y0160692D02*
X0093488Y0160692D01*
X0094416Y0162265D02*
X0174165Y0162265D01*
X0174165Y0163839D02*
X0094800Y0163839D01*
X0094788Y0165412D02*
X0174165Y0165412D01*
X0174165Y0166985D02*
X0094136Y0166985D01*
X0092811Y0168559D02*
X0174165Y0168559D01*
X0174165Y0170132D02*
X0082437Y0170132D01*
X0082437Y0168559D02*
X0085763Y0168559D01*
X0084439Y0166985D02*
X0082437Y0166985D01*
X0082437Y0165412D02*
X0083787Y0165412D01*
X0083775Y0163839D02*
X0082437Y0163839D01*
X0082437Y0162265D02*
X0084159Y0162265D01*
X0084287Y0156787D02*
X0106787Y0156787D01*
X0109661Y0153913D01*
X0109661Y0118224D01*
X0106682Y0113493D02*
X0092877Y0113493D01*
X0092410Y0113960D02*
X0090384Y0114800D01*
X0088191Y0114800D01*
X0086165Y0113960D01*
X0084614Y0112410D01*
X0083775Y0110384D01*
X0083775Y0108191D01*
X0084614Y0106165D01*
X0086138Y0104642D01*
X0086138Y0098933D01*
X0084614Y0097410D01*
X0083775Y0095384D01*
X0083775Y0093191D01*
X0084614Y0091165D01*
X0086165Y0089614D01*
X0088191Y0088775D01*
X0090384Y0088775D01*
X0092410Y0089614D01*
X0093960Y0091165D01*
X0094800Y0093191D01*
X0094800Y0095384D01*
X0093960Y0097410D01*
X0092437Y0098933D01*
X0092437Y0104642D01*
X0093960Y0106165D01*
X0094800Y0108191D01*
X0094800Y0110384D01*
X0093960Y0112410D01*
X0092410Y0113960D01*
X0094164Y0111919D02*
X0121138Y0111919D01*
X0121138Y0110346D02*
X0094800Y0110346D01*
X0094800Y0108773D02*
X0121138Y0108773D01*
X0121138Y0113493D02*
X0118949Y0113493D01*
X0117535Y0113493D02*
X0117535Y0113493D01*
X0116122Y0113493D02*
X0112641Y0113493D01*
X0117535Y0115066D02*
X0117535Y0115066D01*
X0117535Y0116639D02*
X0117535Y0116639D01*
X0117535Y0118213D02*
X0117535Y0118213D01*
X0117535Y0118225D02*
X0117535Y0123161D01*
X0117535Y0118225D01*
X0117535Y0118225D01*
X0117535Y0119786D02*
X0117535Y0119786D01*
X0117535Y0121359D02*
X0117535Y0121359D01*
X0117535Y0122933D02*
X0117535Y0122933D01*
X0116049Y0122933D02*
X0112811Y0122933D01*
X0119022Y0122933D02*
X0122373Y0122933D01*
X0128446Y0122933D02*
X0130247Y0122933D01*
X0115587Y0107199D02*
X0094389Y0107199D01*
X0093422Y0105626D02*
X0113672Y0105626D01*
X0112099Y0104053D02*
X0092437Y0104053D01*
X0092437Y0102480D02*
X0110525Y0102480D01*
X0108952Y0100906D02*
X0092437Y0100906D01*
X0092437Y0099333D02*
X0107379Y0099333D01*
X0106281Y0097760D02*
X0093611Y0097760D01*
X0094467Y0096186D02*
X0105173Y0096186D01*
X0104760Y0094613D02*
X0094800Y0094613D01*
X0094737Y0093040D02*
X0104904Y0093040D01*
X0105706Y0091466D02*
X0094085Y0091466D01*
X0092688Y0089893D02*
X0108065Y0089893D01*
X0109287Y0094287D02*
X0109287Y0096787D01*
X0116787Y0104287D01*
X0105025Y0115066D02*
X0082437Y0115066D01*
X0082437Y0113493D02*
X0085697Y0113493D01*
X0084411Y0111919D02*
X0082437Y0111919D01*
X0082437Y0110346D02*
X0083775Y0110346D01*
X0083775Y0108773D02*
X0082437Y0108773D01*
X0082437Y0107199D02*
X0084186Y0107199D01*
X0085153Y0105626D02*
X0082437Y0105626D01*
X0082437Y0104053D02*
X0086138Y0104053D01*
X0086138Y0102480D02*
X0082437Y0102480D01*
X0082437Y0100906D02*
X0086138Y0100906D01*
X0086138Y0099333D02*
X0082437Y0099333D01*
X0082437Y0097760D02*
X0084964Y0097760D01*
X0084108Y0096186D02*
X0082437Y0096186D01*
X0082437Y0094613D02*
X0083775Y0094613D01*
X0083838Y0093040D02*
X0082437Y0093040D01*
X0082437Y0091466D02*
X0084490Y0091466D01*
X0085886Y0089893D02*
X0082437Y0089893D01*
X0089287Y0094287D02*
X0089287Y0109287D01*
X0082437Y0116639D02*
X0104352Y0116639D01*
X0104150Y0118213D02*
X0082437Y0118213D01*
X0082437Y0119786D02*
X0104342Y0119786D01*
X0105001Y0121359D02*
X0082437Y0121359D01*
X0082437Y0122933D02*
X0106512Y0122933D01*
X0106512Y0124506D02*
X0082437Y0124506D01*
X0082437Y0126079D02*
X0106512Y0126079D01*
X0106512Y0127653D02*
X0082437Y0127653D01*
X0082437Y0129226D02*
X0106512Y0129226D01*
X0106512Y0130799D02*
X0082437Y0130799D01*
X0082437Y0132373D02*
X0106512Y0132373D01*
X0106512Y0133946D02*
X0082437Y0133946D01*
X0082437Y0135519D02*
X0106512Y0135519D01*
X0106512Y0137092D02*
X0082437Y0137092D01*
X0082437Y0138666D02*
X0106512Y0138666D01*
X0106512Y0140239D02*
X0082437Y0140239D01*
X0082437Y0141812D02*
X0106512Y0141812D01*
X0106512Y0143386D02*
X0082437Y0143386D01*
X0082437Y0144959D02*
X0085820Y0144959D01*
X0084462Y0146532D02*
X0082437Y0146532D01*
X0082437Y0148106D02*
X0083811Y0148106D01*
X0083775Y0149679D02*
X0082437Y0149679D01*
X0082437Y0151252D02*
X0084135Y0151252D01*
X0093545Y0152826D02*
X0106295Y0152826D01*
X0106512Y0151252D02*
X0094440Y0151252D01*
X0094800Y0149679D02*
X0106512Y0149679D01*
X0106512Y0148106D02*
X0094764Y0148106D01*
X0094113Y0146532D02*
X0106512Y0146532D01*
X0106512Y0144959D02*
X0092754Y0144959D01*
X0082437Y0171705D02*
X0174165Y0171705D01*
X0174165Y0173279D02*
X0082437Y0173279D01*
X0082437Y0174852D02*
X0174165Y0174852D01*
X0174165Y0176425D02*
X0082437Y0176425D01*
X0082437Y0177999D02*
X0174165Y0177999D01*
X0174165Y0179572D02*
X0082437Y0179572D01*
X0082437Y0181145D02*
X0174165Y0181145D01*
X0079287Y0181787D02*
X0074287Y0186787D01*
X0071787Y0186787D01*
X0079287Y0181787D02*
X0079287Y0046787D01*
X0084287Y0041787D01*
X0086287Y0041787D01*
X0083733Y0025387D02*
X0067341Y0025387D01*
X0067556Y0023814D02*
X0072296Y0023814D01*
X0074189Y0023814D02*
X0074386Y0023814D01*
X0074386Y0024224D02*
X0074386Y0019386D01*
X0079224Y0019386D01*
X0079224Y0019676D01*
X0079103Y0020443D01*
X0078863Y0021183D01*
X0078510Y0021875D01*
X0078053Y0022504D01*
X0077504Y0023053D01*
X0076875Y0023510D01*
X0076183Y0023863D01*
X0075443Y0024103D01*
X0074676Y0024224D01*
X0074386Y0024224D01*
X0076279Y0023814D02*
X0085307Y0023814D01*
X0086880Y0022240D02*
X0078244Y0022240D01*
X0079030Y0020667D02*
X0088175Y0020667D01*
X0088175Y0019094D02*
X0079224Y0019094D01*
X0079224Y0019189D02*
X0079224Y0018899D01*
X0079103Y0018131D01*
X0078863Y0017392D01*
X0078510Y0016700D01*
X0078053Y0016071D01*
X0077504Y0015522D01*
X0076875Y0015065D01*
X0076183Y0014712D01*
X0075443Y0014472D01*
X0074676Y0014350D01*
X0074386Y0014350D01*
X0074386Y0019189D01*
X0079224Y0019189D01*
X0078904Y0017521D02*
X0088175Y0017521D01*
X0088175Y0015947D02*
X0077929Y0015947D01*
X0074824Y0014374D02*
X0088175Y0014374D01*
X0088805Y0012801D02*
X0051750Y0012801D01*
X0051750Y0014374D02*
X0061747Y0014374D01*
X0059833Y0015947D02*
X0051750Y0015947D01*
X0050572Y0017521D02*
X0059053Y0017521D01*
X0058776Y0019094D02*
X0048999Y0019094D01*
X0050185Y0020667D02*
X0058453Y0020667D01*
X0051787Y0024287D02*
X0046787Y0024287D01*
X0048638Y0030107D02*
X0006575Y0030107D01*
X0013434Y0034827D02*
X0024334Y0034827D01*
X0022961Y0036400D02*
X0014948Y0036400D01*
X0015596Y0037974D02*
X0022309Y0037974D01*
X0022209Y0039547D02*
X0015721Y0039547D01*
X0015364Y0041120D02*
X0022447Y0041120D01*
X0023099Y0042694D02*
X0014401Y0042694D01*
X0011898Y0044267D02*
X0024668Y0044267D01*
X0023249Y0061573D02*
X0014447Y0061573D01*
X0015268Y0063147D02*
X0022597Y0063147D01*
X0026138Y0071013D02*
X0006575Y0071013D01*
X0006575Y0069440D02*
X0007749Y0069440D01*
X0009942Y0069440D02*
X0010532Y0069440D01*
X0010532Y0067867D02*
X0009942Y0067867D01*
X0009942Y0066293D02*
X0010532Y0066293D01*
X0007959Y0060000D02*
X0006575Y0060000D01*
X0006575Y0072587D02*
X0008449Y0072587D01*
X0007106Y0074160D02*
X0006575Y0074160D01*
X0014421Y0091466D02*
X0043638Y0091466D01*
X0043638Y0093040D02*
X0015578Y0093040D01*
X0049937Y0093040D02*
X0056138Y0093040D01*
X0056138Y0094613D02*
X0049937Y0094613D01*
X0049937Y0096186D02*
X0056138Y0096186D01*
X0056138Y0097760D02*
X0049937Y0097760D01*
X0049937Y0099333D02*
X0056138Y0099333D01*
X0056138Y0100906D02*
X0049937Y0100906D01*
X0049937Y0102480D02*
X0056138Y0102480D01*
X0056138Y0104053D02*
X0049937Y0104053D01*
X0049937Y0105626D02*
X0056138Y0105626D01*
X0056138Y0107199D02*
X0049937Y0107199D01*
X0049937Y0108773D02*
X0056138Y0108773D01*
X0056138Y0110346D02*
X0049937Y0110346D01*
X0049937Y0111919D02*
X0056138Y0111919D01*
X0056138Y0113493D02*
X0049937Y0113493D01*
X0049937Y0115066D02*
X0056138Y0115066D01*
X0056138Y0116639D02*
X0049937Y0116639D01*
X0049937Y0118213D02*
X0056138Y0118213D01*
X0056138Y0119786D02*
X0049937Y0119786D01*
X0049937Y0121359D02*
X0056138Y0121359D01*
X0056138Y0122933D02*
X0049937Y0122933D01*
X0049937Y0124506D02*
X0056138Y0124506D01*
X0056138Y0126079D02*
X0049937Y0126079D01*
X0049937Y0127653D02*
X0056138Y0127653D01*
X0055448Y0129226D02*
X0049937Y0129226D01*
X0049937Y0130799D02*
X0054796Y0130799D01*
X0054760Y0132373D02*
X0049937Y0132373D01*
X0049937Y0133946D02*
X0055281Y0133946D01*
X0056616Y0135519D02*
X0049937Y0135519D01*
X0049937Y0137092D02*
X0059192Y0137092D01*
X0057370Y0138666D02*
X0049937Y0138666D01*
X0049937Y0140239D02*
X0056659Y0140239D01*
X0056457Y0141812D02*
X0049937Y0141812D01*
X0049937Y0143386D02*
X0056680Y0143386D01*
X0057420Y0144959D02*
X0049937Y0144959D01*
X0049937Y0146532D02*
X0059313Y0146532D01*
X0057930Y0148106D02*
X0049937Y0148106D01*
X0049937Y0149679D02*
X0056891Y0149679D01*
X0056457Y0151252D02*
X0049937Y0151252D01*
X0049937Y0152826D02*
X0056457Y0152826D01*
X0057099Y0154399D02*
X0051353Y0154399D01*
X0052926Y0155972D02*
X0058433Y0155972D01*
X0065141Y0155972D02*
X0066457Y0155972D01*
X0066476Y0154399D02*
X0067007Y0154399D01*
X0067118Y0152826D02*
X0068210Y0152826D01*
X0068714Y0151252D02*
X0067118Y0151252D01*
X0067215Y0149679D02*
X0066684Y0149679D01*
X0066564Y0148106D02*
X0065644Y0148106D01*
X0066457Y0146532D02*
X0064262Y0146532D01*
X0066155Y0144959D02*
X0066775Y0144959D01*
X0066895Y0143386D02*
X0067650Y0143386D01*
X0067118Y0141812D02*
X0069868Y0141812D01*
X0067700Y0140239D02*
X0066916Y0140239D01*
X0066796Y0138666D02*
X0066205Y0138666D01*
X0066457Y0137092D02*
X0064383Y0137092D01*
X0066543Y0135519D02*
X0061959Y0135519D01*
X0063294Y0133946D02*
X0067195Y0133946D01*
X0068664Y0132373D02*
X0063815Y0132373D01*
X0063779Y0130799D02*
X0068260Y0130799D01*
X0067028Y0129226D02*
X0063127Y0129226D01*
X0062437Y0127653D02*
X0066457Y0127653D01*
X0066457Y0126079D02*
X0062437Y0126079D01*
X0062437Y0124506D02*
X0066962Y0124506D01*
X0068103Y0122933D02*
X0062437Y0122933D01*
X0062437Y0121359D02*
X0068895Y0121359D01*
X0067260Y0119786D02*
X0062437Y0119786D01*
X0062437Y0118213D02*
X0066608Y0118213D01*
X0066457Y0116639D02*
X0062437Y0116639D01*
X0062437Y0115066D02*
X0066730Y0115066D01*
X0067543Y0113493D02*
X0062437Y0113493D01*
X0062437Y0111919D02*
X0069610Y0111919D01*
X0067807Y0110346D02*
X0062437Y0110346D01*
X0062437Y0108773D02*
X0066840Y0108773D01*
X0066457Y0107199D02*
X0062437Y0107199D01*
X0062437Y0105626D02*
X0066498Y0105626D01*
X0067150Y0104053D02*
X0062437Y0104053D01*
X0062437Y0102480D02*
X0068557Y0102480D01*
X0068367Y0100906D02*
X0062437Y0100906D01*
X0062437Y0099333D02*
X0067072Y0099333D01*
X0066457Y0097760D02*
X0062437Y0097760D01*
X0062437Y0096186D02*
X0066457Y0096186D01*
X0066918Y0094613D02*
X0062437Y0094613D01*
X0062437Y0093040D02*
X0067996Y0093040D01*
X0069154Y0091466D02*
X0062437Y0091466D01*
X0062437Y0089893D02*
X0067354Y0089893D01*
X0066652Y0088320D02*
X0062437Y0088320D01*
X0062437Y0086746D02*
X0066457Y0086746D01*
X0066686Y0085173D02*
X0062437Y0085173D01*
X0062437Y0083600D02*
X0067436Y0083600D01*
X0069352Y0082026D02*
X0062437Y0082026D01*
X0062576Y0080453D02*
X0067914Y0080453D01*
X0071787Y0076787D02*
X0061787Y0076787D01*
X0059287Y0079287D01*
X0059287Y0131787D01*
X0046787Y0154287D02*
X0051787Y0159287D01*
X0069287Y0159287D01*
X0071787Y0156787D01*
X0046787Y0154287D02*
X0046787Y0046787D01*
X0049937Y0058427D02*
X0058166Y0058427D01*
X0057177Y0060000D02*
X0049937Y0060000D01*
X0049937Y0061573D02*
X0056850Y0061573D01*
X0057038Y0063147D02*
X0049937Y0063147D01*
X0049937Y0064720D02*
X0057816Y0064720D01*
X0059756Y0066293D02*
X0049937Y0066293D01*
X0049937Y0067867D02*
X0076138Y0067867D01*
X0076138Y0069440D02*
X0049937Y0069440D01*
X0049937Y0071013D02*
X0076138Y0071013D01*
X0076138Y0072587D02*
X0075125Y0072587D01*
X0075076Y0066293D02*
X0076138Y0066293D01*
X0068498Y0066293D02*
X0063819Y0066293D01*
X0061787Y0066293D02*
X0061787Y0066293D01*
X0061787Y0066724D02*
X0061787Y0061788D01*
X0061787Y0061788D01*
X0061787Y0066724D01*
X0061787Y0064720D02*
X0061787Y0064720D01*
X0061787Y0063147D02*
X0061787Y0063147D01*
X0061787Y0061573D02*
X0061787Y0061573D01*
X0061787Y0060000D02*
X0061787Y0060000D01*
X0061787Y0058427D02*
X0061787Y0058427D01*
X0065759Y0064720D02*
X0067036Y0064720D01*
X0068449Y0072587D02*
X0049937Y0072587D01*
X0049937Y0074160D02*
X0059961Y0074160D01*
X0058387Y0075733D02*
X0049937Y0075733D01*
X0049937Y0077306D02*
X0056814Y0077306D01*
X0056138Y0078880D02*
X0049937Y0078880D01*
X0049937Y0080453D02*
X0056138Y0080453D01*
X0056138Y0082026D02*
X0049937Y0082026D01*
X0049937Y0083600D02*
X0056138Y0083600D01*
X0056138Y0085173D02*
X0049937Y0085173D01*
X0049937Y0086746D02*
X0056138Y0086746D01*
X0056138Y0088320D02*
X0049937Y0088320D01*
X0049937Y0089893D02*
X0056138Y0089893D01*
X0056138Y0091466D02*
X0049937Y0091466D01*
X0006575Y0148133D02*
X0007268Y0149807D01*
X0008768Y0151307D01*
X0010727Y0152118D01*
X0010866Y0152118D01*
X0010674Y0152149D01*
X0009962Y0152380D01*
X0009295Y0152720D01*
X0008689Y0153160D01*
X0008160Y0153689D01*
X0007720Y0154295D01*
X0007380Y0154962D01*
X0007149Y0155674D01*
X0007031Y0156413D01*
X0007031Y0156591D01*
X0011590Y0156591D01*
X0011590Y0156984D01*
X0007031Y0156984D01*
X0007031Y0157162D01*
X0007149Y0157901D01*
X0007380Y0158613D01*
X0007720Y0159280D01*
X0008160Y0159886D01*
X0008689Y0160415D01*
X0009295Y0160855D01*
X0009962Y0161195D01*
X0010674Y0161426D01*
X0010866Y0161457D01*
X0010727Y0161457D01*
X0008768Y0162268D01*
X0007268Y0163768D01*
X0006575Y0165442D01*
X0006575Y0148133D01*
X0006575Y0149679D02*
X0007215Y0149679D01*
X0006575Y0151252D02*
X0008714Y0151252D01*
X0009149Y0152826D02*
X0006575Y0152826D01*
X0006575Y0154399D02*
X0007667Y0154399D01*
X0007101Y0155972D02*
X0006575Y0155972D01*
X0006575Y0157546D02*
X0007092Y0157546D01*
X0006575Y0159119D02*
X0007638Y0159119D01*
X0006575Y0160692D02*
X0009071Y0160692D01*
X0008774Y0162265D02*
X0006575Y0162265D01*
X0006575Y0163839D02*
X0007239Y0163839D01*
X0006587Y0165412D02*
X0006575Y0165412D01*
X0041417Y0217331D02*
X0045948Y0217331D01*
X0044515Y0218905D02*
X0043296Y0218905D01*
X0043881Y0223625D02*
X0044083Y0223625D01*
X0044903Y0225198D02*
X0042859Y0225198D01*
X0069030Y0022240D02*
X0070330Y0022240D01*
X0074189Y0022240D02*
X0074386Y0022240D01*
X0074386Y0020667D02*
X0074189Y0020667D01*
X0074189Y0019094D02*
X0074386Y0019094D01*
X0074386Y0017521D02*
X0074189Y0017521D01*
X0074189Y0015947D02*
X0074386Y0015947D01*
X0074386Y0014374D02*
X0074189Y0014374D01*
X0073750Y0014374D02*
X0066828Y0014374D01*
X0068742Y0015947D02*
X0070646Y0015947D01*
X0069670Y0017521D02*
X0069521Y0017521D01*
X0050745Y0011227D02*
X0089954Y0011227D01*
X0092519Y0009654D02*
X0049172Y0009654D01*
D20*
X0046787Y0046787D03*
X0109287Y0094287D03*
X0139287Y0079287D03*
X0139287Y0071787D03*
X0139287Y0064287D03*
X0146787Y0064287D03*
X0146787Y0071787D03*
X0146787Y0079287D03*
X0154287Y0079287D03*
X0154287Y0071787D03*
X0154287Y0064287D03*
X0084287Y0156787D03*
X0059287Y0131787D03*
X0024287Y0171787D03*
D21*
X0092287Y0041787D02*
X0121787Y0041787D01*
X0131787Y0051787D01*
X0141787Y0051787D01*
X0154287Y0064287D01*
X0094287Y0019287D02*
X0092287Y0021287D01*
X0092287Y0041787D01*
M02*
