%
M48
M72
T01C0.0197
T02C0.0315
T03C0.0320
T04C0.0354
T05C0.0394
T06C0.0433
T07C0.0500
T08C0.1575
%
T01
X4679Y4679
X10929Y9429
X13929Y7929
X13929Y7179
X13929Y6429
X14679Y6429
X14679Y7179
X14679Y7929
X15429Y7929
X15429Y7179
X15429Y6429
X8429Y15679
X5929Y13179
X2429Y17179
T02
X3929Y22179
X4929Y22179
X8429Y22179
X9429Y22179
X13328Y18712
X14116Y18712
X14903Y18712
X14903Y11822
X15691Y11822
X16478Y11822
X14116Y11822
X13328Y11822
X12541Y11822
X11754Y11822
X10966Y11822
X7179Y6179
X6179Y6179
T03
X4679Y2429
X3929Y1929
X4679Y1429
T04
X6429Y1929
X7429Y1929
X8929Y5429
X8929Y9429
X8929Y10929
X8929Y14929
X8929Y16429
X8929Y20429
T05
X7179Y18679
X7179Y17679
X7179Y16679
X7179Y15679
X7179Y14679
X7179Y13679
X7179Y12679
X7179Y11679
X7179Y10679
X7179Y9679
X7179Y8679
X7179Y7679
X6179Y14179
X6179Y15179
X1179Y15679
X1179Y16679
X1179Y17679
X1179Y18679
X1179Y14679
X1179Y13679
X1179Y12679
X1179Y11679
X1179Y10679
X1179Y9679
X1179Y8679
X1179Y7679
X13679Y21179
T06
X2827Y6477
X1024Y6477
X1043Y3918
X2807Y3938
T07
X9429Y1929
X10929Y1929
X12429Y1929
X13929Y1929
T08
X1679Y1679
X16429Y1679
X16429Y22429
X1679Y22429
M30
