G75*
%MOIN*%
%OFA0B0*%
%FSLAX25Y25*%
%IPPOS*%
%LPD*%
%AMOC8*
5,1,8,0,0,1.08239X$1,22.5*
%
%ADD10C,0.06299*%
%ADD11C,0.07000*%
%ADD12C,0.07600*%
%ADD13R,0.05000X0.10000*%
%ADD14R,0.06299X0.03150*%
%ADD15R,0.23622X0.23622*%
%ADD16OC8,0.05200*%
%ADD17C,0.06300*%
%ADD18C,0.05937*%
%ADD19C,0.07500*%
%ADD20C,0.04331*%
%ADD21C,0.01575*%
%ADD22C,0.01969*%
%ADD23C,0.03150*%
D10*
X0061787Y0061787D03*
X0071787Y0061787D03*
X0074287Y0019287D03*
X0064287Y0019287D03*
X0109661Y0118224D03*
X0117535Y0118224D03*
X0125409Y0118224D03*
X0133283Y0118224D03*
X0141157Y0118224D03*
X0149031Y0118224D03*
X0156906Y0118224D03*
X0164780Y0118224D03*
X0149031Y0187122D03*
X0141157Y0187122D03*
X0133283Y0187122D03*
X0094287Y0221787D03*
X0084287Y0221787D03*
X0049287Y0221787D03*
X0039287Y0221787D03*
D11*
X0028269Y0064774D03*
X0010237Y0064774D03*
X0010434Y0039183D03*
X0028072Y0039380D03*
D12*
X0136787Y0211787D03*
D13*
X0133283Y0193028D03*
X0141157Y0193028D03*
X0149031Y0193028D03*
X0149031Y0112319D03*
X0156906Y0112319D03*
X0164780Y0112319D03*
X0141157Y0112319D03*
X0133283Y0112319D03*
X0125409Y0112319D03*
X0117535Y0112319D03*
X0109661Y0112319D03*
D14*
X0120488Y0080764D03*
X0120488Y0076276D03*
X0120488Y0067299D03*
X0120488Y0062811D03*
D15*
X0146906Y0071787D03*
D16*
X0046787Y0024287D03*
X0039287Y0019287D03*
X0046787Y0014287D03*
D17*
X0089287Y0054287D03*
X0089287Y0094287D03*
X0089287Y0109287D03*
X0089287Y0149287D03*
X0089287Y0164287D03*
X0089287Y0204287D03*
D18*
X0071787Y0186787D03*
X0071787Y0176787D03*
X0071787Y0166787D03*
X0071787Y0156787D03*
X0071787Y0146787D03*
X0071787Y0136787D03*
X0071787Y0126787D03*
X0071787Y0116787D03*
X0071787Y0106787D03*
X0071787Y0096787D03*
X0071787Y0086787D03*
X0071787Y0076787D03*
X0061787Y0141787D03*
X0061787Y0151787D03*
X0011787Y0146787D03*
X0011787Y0136787D03*
X0011787Y0126787D03*
X0011787Y0116787D03*
X0011787Y0106787D03*
X0011787Y0096787D03*
X0011787Y0086787D03*
X0011787Y0076787D03*
X0011787Y0156787D03*
X0011787Y0166787D03*
X0011787Y0176787D03*
X0011787Y0186787D03*
D19*
X0094287Y0023037D02*
X0094287Y0015537D01*
X0109287Y0015537D02*
X0109287Y0023037D01*
X0124287Y0023037D02*
X0124287Y0015537D01*
X0139287Y0015537D02*
X0139287Y0023037D01*
D20*
X0139287Y0064287D03*
X0139287Y0071787D03*
X0139287Y0079287D03*
X0146787Y0079287D03*
X0146787Y0071787D03*
X0146787Y0064287D03*
X0154287Y0064287D03*
X0154287Y0071787D03*
X0154287Y0079287D03*
X0109287Y0094287D03*
X0084287Y0156787D03*
X0059287Y0131787D03*
X0024287Y0171787D03*
X0046787Y0046787D03*
D21*
X0006575Y0035565D02*
X0006575Y0024421D01*
X0006656Y0024562D01*
X0009013Y0026919D01*
X0011900Y0028586D01*
X0015120Y0029449D01*
X0018454Y0029449D01*
X0021675Y0028586D01*
X0024562Y0026919D01*
X0026919Y0024562D01*
X0028586Y0021675D01*
X0029449Y0018454D01*
X0029449Y0015120D01*
X0028586Y0011900D01*
X0026919Y0009013D01*
X0024562Y0006656D01*
X0024421Y0006575D01*
X0156653Y0006575D01*
X0156513Y0006656D01*
X0154156Y0009013D01*
X0152489Y0011900D01*
X0151626Y0015120D01*
X0151626Y0018454D01*
X0152489Y0021675D01*
X0154156Y0024562D01*
X0156513Y0026919D01*
X0159400Y0028586D01*
X0162620Y0029449D01*
X0165954Y0029449D01*
X0169175Y0028586D01*
X0172062Y0026919D01*
X0174165Y0024815D01*
X0174165Y0101925D01*
X0143849Y0101925D01*
X0143828Y0101873D01*
X0141957Y0100003D01*
X0141072Y0099117D01*
X0139914Y0098638D01*
X0110616Y0098638D01*
X0111852Y0098126D01*
X0113126Y0096852D01*
X0113815Y0095188D01*
X0113815Y0093387D01*
X0113126Y0091723D01*
X0111852Y0090449D01*
X0110188Y0089760D01*
X0109214Y0089760D01*
X0103572Y0084117D01*
X0102414Y0083638D01*
X0076177Y0083638D01*
X0074807Y0082268D01*
X0073646Y0081787D01*
X0074807Y0081307D01*
X0076307Y0079807D01*
X0077118Y0077848D01*
X0077118Y0075727D01*
X0076307Y0073768D01*
X0074807Y0072268D01*
X0072848Y0071457D01*
X0070727Y0071457D01*
X0068768Y0072268D01*
X0067268Y0073768D01*
X0066457Y0075727D01*
X0066457Y0077848D01*
X0067268Y0079807D01*
X0068768Y0081307D01*
X0069929Y0081787D01*
X0068768Y0082268D01*
X0067268Y0083768D01*
X0066457Y0085727D01*
X0066457Y0087848D01*
X0066784Y0088638D01*
X0036161Y0088638D01*
X0035003Y0089117D01*
X0034117Y0090003D01*
X0026617Y0097503D01*
X0026138Y0098661D01*
X0026138Y0110483D01*
X0022983Y0113638D01*
X0016177Y0113638D01*
X0014807Y0112268D01*
X0013646Y0111787D01*
X0014807Y0111307D01*
X0016307Y0109807D01*
X0017118Y0107848D01*
X0017118Y0105727D01*
X0016307Y0103768D01*
X0014807Y0102268D01*
X0013646Y0101787D01*
X0014807Y0101307D01*
X0016307Y0099807D01*
X0017118Y0097848D01*
X0017118Y0095727D01*
X0016307Y0093768D01*
X0014807Y0092268D01*
X0013646Y0091787D01*
X0014807Y0091307D01*
X0016307Y0089807D01*
X0017118Y0087848D01*
X0017118Y0085727D01*
X0016307Y0083768D01*
X0014807Y0082268D01*
X0013646Y0081787D01*
X0014807Y0081307D01*
X0016307Y0079807D01*
X0017118Y0077848D01*
X0017118Y0075727D01*
X0016307Y0073768D01*
X0014807Y0072268D01*
X0012848Y0071457D01*
X0010727Y0071457D01*
X0008768Y0072268D01*
X0007268Y0073768D01*
X0006575Y0075442D01*
X0006575Y0068589D01*
X0006792Y0068807D01*
X0007466Y0069296D01*
X0008207Y0069674D01*
X0008999Y0069931D01*
X0009821Y0070061D01*
X0009942Y0070061D01*
X0009942Y0065069D01*
X0010532Y0065069D01*
X0010532Y0070061D01*
X0010653Y0070061D01*
X0011475Y0069931D01*
X0012267Y0069674D01*
X0013008Y0069296D01*
X0013682Y0068807D01*
X0014270Y0068218D01*
X0014759Y0067545D01*
X0015137Y0066803D01*
X0015394Y0066012D01*
X0015524Y0065190D01*
X0015524Y0065069D01*
X0010532Y0065069D01*
X0010532Y0064478D01*
X0010532Y0059486D01*
X0010653Y0059486D01*
X0011475Y0059616D01*
X0012267Y0059874D01*
X0013008Y0060251D01*
X0013682Y0060741D01*
X0014270Y0061329D01*
X0014759Y0062002D01*
X0015137Y0062744D01*
X0015394Y0063535D01*
X0015524Y0064357D01*
X0015524Y0064478D01*
X0010532Y0064478D01*
X0009942Y0064478D01*
X0009942Y0059486D01*
X0009821Y0059486D01*
X0008999Y0059616D01*
X0008207Y0059874D01*
X0007466Y0060251D01*
X0006792Y0060741D01*
X0006575Y0060958D01*
X0006575Y0042802D01*
X0006989Y0043216D01*
X0007663Y0043705D01*
X0008404Y0044083D01*
X0009196Y0044340D01*
X0010018Y0044470D01*
X0010139Y0044470D01*
X0010139Y0039478D01*
X0010729Y0039478D01*
X0015721Y0039478D01*
X0015721Y0039599D01*
X0015591Y0040421D01*
X0015334Y0041213D01*
X0014956Y0041954D01*
X0014467Y0042628D01*
X0013878Y0043216D01*
X0013205Y0043705D01*
X0012464Y0044083D01*
X0011672Y0044340D01*
X0010850Y0044470D01*
X0010729Y0044470D01*
X0010729Y0039478D01*
X0010729Y0038888D01*
X0015721Y0038888D01*
X0015721Y0038767D01*
X0015591Y0037945D01*
X0015334Y0037153D01*
X0014956Y0036412D01*
X0014467Y0035739D01*
X0013878Y0035150D01*
X0013205Y0034661D01*
X0012464Y0034283D01*
X0011672Y0034026D01*
X0010850Y0033896D01*
X0010729Y0033896D01*
X0010729Y0038888D01*
X0010139Y0038888D01*
X0010139Y0033896D01*
X0010018Y0033896D01*
X0009196Y0034026D01*
X0008404Y0034283D01*
X0007663Y0034661D01*
X0006989Y0035150D01*
X0006575Y0035565D01*
X0006575Y0034827D02*
X0007434Y0034827D01*
X0006575Y0033254D02*
X0051138Y0033254D01*
X0051138Y0034827D02*
X0031809Y0034827D01*
X0031392Y0034410D02*
X0033041Y0036059D01*
X0033934Y0038214D01*
X0033934Y0040546D01*
X0033041Y0042701D01*
X0031392Y0044350D01*
X0029238Y0045242D01*
X0026906Y0045242D01*
X0024751Y0044350D01*
X0023102Y0042701D01*
X0022209Y0040546D01*
X0022209Y0038214D01*
X0023102Y0036059D01*
X0024751Y0034410D01*
X0026906Y0033518D01*
X0029238Y0033518D01*
X0031392Y0034410D01*
X0033183Y0036400D02*
X0051138Y0036400D01*
X0051138Y0037974D02*
X0033834Y0037974D01*
X0033934Y0039547D02*
X0049574Y0039547D01*
X0051138Y0037983D02*
X0051138Y0026955D01*
X0048843Y0029250D01*
X0044732Y0029250D01*
X0041825Y0026343D01*
X0041825Y0022954D01*
X0041105Y0023675D01*
X0039300Y0023675D01*
X0039300Y0019300D01*
X0039275Y0019300D01*
X0039275Y0023675D01*
X0037470Y0023675D01*
X0034900Y0021105D01*
X0034900Y0019300D01*
X0039275Y0019300D01*
X0039275Y0019275D01*
X0034900Y0019275D01*
X0034900Y0017470D01*
X0037470Y0014900D01*
X0039275Y0014900D01*
X0039275Y0019275D01*
X0039300Y0019275D01*
X0039300Y0019300D01*
X0043675Y0019300D01*
X0043675Y0020382D01*
X0044732Y0019325D01*
X0048843Y0019325D01*
X0051138Y0021620D01*
X0051138Y0018092D01*
X0050569Y0017523D01*
X0048843Y0019250D01*
X0044732Y0019250D01*
X0043675Y0018192D01*
X0043675Y0019275D01*
X0039300Y0019275D01*
X0039300Y0014900D01*
X0041105Y0014900D01*
X0041825Y0015620D01*
X0041825Y0012232D01*
X0044732Y0009325D01*
X0048843Y0009325D01*
X0050655Y0011138D01*
X0052414Y0011138D01*
X0053572Y0011617D01*
X0056072Y0014117D01*
X0056957Y0015003D01*
X0057437Y0016161D01*
X0057437Y0039914D01*
X0056957Y0041072D01*
X0051315Y0046714D01*
X0051315Y0047688D01*
X0050626Y0049352D01*
X0049352Y0050626D01*
X0047688Y0051315D01*
X0045887Y0051315D01*
X0044223Y0050626D01*
X0042949Y0049352D01*
X0042260Y0047688D01*
X0042260Y0045887D01*
X0042949Y0044223D01*
X0044223Y0042949D01*
X0045887Y0042260D01*
X0046861Y0042260D01*
X0051138Y0037983D01*
X0054287Y0039287D02*
X0046787Y0046787D01*
X0044840Y0042694D02*
X0033044Y0042694D01*
X0033696Y0041120D02*
X0048000Y0041120D01*
X0052189Y0045840D02*
X0116551Y0045840D01*
X0116551Y0044267D02*
X0053762Y0044267D01*
X0055335Y0042694D02*
X0116551Y0042694D01*
X0116551Y0041120D02*
X0056909Y0041120D01*
X0057437Y0039547D02*
X0116551Y0039547D01*
X0116551Y0037974D02*
X0057437Y0037974D01*
X0057437Y0036400D02*
X0116551Y0036400D01*
X0116551Y0034827D02*
X0057437Y0034827D01*
X0057437Y0033254D02*
X0116551Y0033254D01*
X0116551Y0031680D02*
X0057437Y0031680D01*
X0057437Y0030107D02*
X0116551Y0030107D01*
X0116551Y0029803D02*
X0117151Y0028356D01*
X0119077Y0026430D01*
X0118175Y0024253D01*
X0118175Y0014322D01*
X0119106Y0012075D01*
X0120825Y0010356D01*
X0123072Y0009425D01*
X0125503Y0009425D01*
X0127750Y0010356D01*
X0129469Y0012075D01*
X0130400Y0014322D01*
X0130400Y0024253D01*
X0129469Y0026500D01*
X0128101Y0027867D01*
X0127625Y0029018D01*
X0126518Y0030125D01*
X0124425Y0032217D01*
X0124425Y0058874D01*
X0124616Y0058874D01*
X0126000Y0060258D01*
X0126000Y0069852D01*
X0124616Y0071236D01*
X0116360Y0071236D01*
X0114976Y0069852D01*
X0114976Y0060258D01*
X0116360Y0058874D01*
X0116551Y0058874D01*
X0116551Y0029803D01*
X0117077Y0028534D02*
X0109982Y0028534D01*
X0109750Y0028534D02*
X0108825Y0028534D01*
X0108825Y0028571D02*
X0107991Y0028438D01*
X0107162Y0028169D01*
X0106385Y0027773D01*
X0105680Y0027261D01*
X0105064Y0026645D01*
X0104551Y0025940D01*
X0104156Y0025163D01*
X0103886Y0024334D01*
X0103750Y0023473D01*
X0103750Y0019750D01*
X0108825Y0019750D01*
X0108825Y0028571D01*
X0108592Y0028534D02*
X0096990Y0028534D01*
X0097750Y0028219D02*
X0095503Y0029150D01*
X0093072Y0029150D01*
X0090825Y0028219D01*
X0089106Y0026500D01*
X0088175Y0024253D01*
X0088175Y0014322D01*
X0089106Y0012075D01*
X0090825Y0010356D01*
X0093072Y0009425D01*
X0095503Y0009425D01*
X0097750Y0010356D01*
X0099469Y0012075D01*
X0100400Y0014322D01*
X0100400Y0024253D01*
X0099469Y0026500D01*
X0097750Y0028219D01*
X0099008Y0026960D02*
X0105379Y0026960D01*
X0104270Y0025387D02*
X0099930Y0025387D01*
X0100400Y0023814D02*
X0103804Y0023814D01*
X0103750Y0022240D02*
X0100400Y0022240D01*
X0100400Y0020667D02*
X0103750Y0020667D01*
X0103750Y0018825D02*
X0103750Y0015102D01*
X0103886Y0014241D01*
X0104156Y0013412D01*
X0104551Y0012635D01*
X0105064Y0011930D01*
X0105680Y0011314D01*
X0106385Y0010801D01*
X0107162Y0010406D01*
X0107991Y0010136D01*
X0108825Y0010004D01*
X0108825Y0018825D01*
X0109750Y0018825D01*
X0109750Y0019750D01*
X0114825Y0019750D01*
X0114825Y0023473D01*
X0114688Y0024334D01*
X0114419Y0025163D01*
X0114023Y0025940D01*
X0113511Y0026645D01*
X0112895Y0027261D01*
X0112190Y0027773D01*
X0111413Y0028169D01*
X0110584Y0028438D01*
X0109750Y0028571D01*
X0109750Y0019750D01*
X0108825Y0019750D01*
X0108825Y0018825D01*
X0103750Y0018825D01*
X0103750Y0017521D02*
X0100400Y0017521D01*
X0100400Y0019094D02*
X0108825Y0019094D01*
X0109750Y0019094D02*
X0118175Y0019094D01*
X0118175Y0020667D02*
X0114825Y0020667D01*
X0114825Y0022240D02*
X0118175Y0022240D01*
X0118175Y0023814D02*
X0114771Y0023814D01*
X0114305Y0025387D02*
X0118645Y0025387D01*
X0118547Y0026960D02*
X0113195Y0026960D01*
X0109750Y0026960D02*
X0108825Y0026960D01*
X0108825Y0025387D02*
X0109750Y0025387D01*
X0109750Y0023814D02*
X0108825Y0023814D01*
X0108825Y0022240D02*
X0109750Y0022240D01*
X0109750Y0020667D02*
X0108825Y0020667D01*
X0109750Y0018825D02*
X0114825Y0018825D01*
X0114825Y0015102D01*
X0114688Y0014241D01*
X0114419Y0013412D01*
X0114023Y0012635D01*
X0113511Y0011930D01*
X0112895Y0011314D01*
X0112190Y0010801D01*
X0111413Y0010406D01*
X0110584Y0010136D01*
X0109750Y0010004D01*
X0109750Y0018825D01*
X0109750Y0017521D02*
X0108825Y0017521D01*
X0108825Y0015947D02*
X0109750Y0015947D01*
X0109750Y0014374D02*
X0108825Y0014374D01*
X0108825Y0012801D02*
X0109750Y0012801D01*
X0109750Y0011227D02*
X0108825Y0011227D01*
X0105799Y0011227D02*
X0098621Y0011227D01*
X0099770Y0012801D02*
X0104467Y0012801D01*
X0103865Y0014374D02*
X0100400Y0014374D01*
X0100400Y0015947D02*
X0103750Y0015947D01*
X0096055Y0009654D02*
X0122519Y0009654D01*
X0119954Y0011227D02*
X0112776Y0011227D01*
X0114108Y0012801D02*
X0118805Y0012801D01*
X0118175Y0014374D02*
X0114710Y0014374D01*
X0114825Y0015947D02*
X0118175Y0015947D01*
X0118175Y0017521D02*
X0114825Y0017521D01*
X0126055Y0009654D02*
X0153786Y0009654D01*
X0152877Y0011227D02*
X0142776Y0011227D01*
X0142895Y0011314D02*
X0143511Y0011930D01*
X0144023Y0012635D01*
X0144419Y0013412D01*
X0144688Y0014241D01*
X0144825Y0015102D01*
X0144825Y0018825D01*
X0139750Y0018825D01*
X0139750Y0019750D01*
X0144825Y0019750D01*
X0144825Y0023473D01*
X0144688Y0024334D01*
X0144419Y0025163D01*
X0144023Y0025940D01*
X0143511Y0026645D01*
X0142895Y0027261D01*
X0142190Y0027773D01*
X0141413Y0028169D01*
X0140584Y0028438D01*
X0139750Y0028571D01*
X0139750Y0019750D01*
X0138825Y0019750D01*
X0138825Y0028571D01*
X0137991Y0028438D01*
X0137162Y0028169D01*
X0136385Y0027773D01*
X0135680Y0027261D01*
X0135064Y0026645D01*
X0134551Y0025940D01*
X0134156Y0025163D01*
X0133886Y0024334D01*
X0133750Y0023473D01*
X0133750Y0019750D01*
X0138825Y0019750D01*
X0138825Y0018825D01*
X0139750Y0018825D01*
X0139750Y0010004D01*
X0140584Y0010136D01*
X0141413Y0010406D01*
X0142190Y0010801D01*
X0142895Y0011314D01*
X0144108Y0012801D02*
X0152248Y0012801D01*
X0151826Y0014374D02*
X0144710Y0014374D01*
X0144825Y0015947D02*
X0151626Y0015947D01*
X0151626Y0017521D02*
X0144825Y0017521D01*
X0144825Y0020667D02*
X0152219Y0020667D01*
X0151797Y0019094D02*
X0139750Y0019094D01*
X0138825Y0019094D02*
X0130400Y0019094D01*
X0130400Y0020667D02*
X0133750Y0020667D01*
X0133750Y0022240D02*
X0130400Y0022240D01*
X0130400Y0023814D02*
X0133804Y0023814D01*
X0134270Y0025387D02*
X0129930Y0025387D01*
X0129008Y0026960D02*
X0135379Y0026960D01*
X0138825Y0026960D02*
X0139750Y0026960D01*
X0139750Y0025387D02*
X0138825Y0025387D01*
X0138825Y0023814D02*
X0139750Y0023814D01*
X0139750Y0022240D02*
X0138825Y0022240D01*
X0138825Y0020667D02*
X0139750Y0020667D01*
X0138825Y0018825D02*
X0133750Y0018825D01*
X0133750Y0015102D01*
X0133886Y0014241D01*
X0134156Y0013412D01*
X0134551Y0012635D01*
X0135064Y0011930D01*
X0135680Y0011314D01*
X0136385Y0010801D01*
X0137162Y0010406D01*
X0137991Y0010136D01*
X0138825Y0010004D01*
X0138825Y0018825D01*
X0138825Y0017521D02*
X0139750Y0017521D01*
X0139750Y0015947D02*
X0138825Y0015947D01*
X0138825Y0014374D02*
X0139750Y0014374D01*
X0139750Y0012801D02*
X0138825Y0012801D01*
X0138825Y0011227D02*
X0139750Y0011227D01*
X0135799Y0011227D02*
X0128621Y0011227D01*
X0129770Y0012801D02*
X0134467Y0012801D01*
X0133865Y0014374D02*
X0130400Y0014374D01*
X0130400Y0015947D02*
X0133750Y0015947D01*
X0133750Y0017521D02*
X0130400Y0017521D01*
X0127825Y0028534D02*
X0138592Y0028534D01*
X0138825Y0028534D02*
X0139750Y0028534D01*
X0139982Y0028534D02*
X0159310Y0028534D01*
X0156585Y0026960D02*
X0143195Y0026960D01*
X0144305Y0025387D02*
X0154981Y0025387D01*
X0153724Y0023814D02*
X0144771Y0023814D01*
X0144825Y0022240D02*
X0152816Y0022240D01*
X0155088Y0008081D02*
X0025987Y0008081D01*
X0027289Y0009654D02*
X0044403Y0009654D01*
X0042830Y0011227D02*
X0028197Y0011227D01*
X0028827Y0012801D02*
X0041825Y0012801D01*
X0041825Y0014374D02*
X0029249Y0014374D01*
X0029449Y0015947D02*
X0036423Y0015947D01*
X0034900Y0017521D02*
X0029449Y0017521D01*
X0029277Y0019094D02*
X0034900Y0019094D01*
X0034900Y0020667D02*
X0028856Y0020667D01*
X0028259Y0022240D02*
X0036036Y0022240D01*
X0039275Y0022240D02*
X0039300Y0022240D01*
X0039275Y0020667D02*
X0039300Y0020667D01*
X0039275Y0019094D02*
X0039300Y0019094D01*
X0039275Y0017521D02*
X0039300Y0017521D01*
X0039275Y0015947D02*
X0039300Y0015947D01*
X0043675Y0019094D02*
X0044576Y0019094D01*
X0046787Y0014287D02*
X0051787Y0014287D01*
X0054287Y0016787D01*
X0054287Y0039287D01*
X0051138Y0031680D02*
X0006575Y0031680D01*
X0006575Y0030107D02*
X0051138Y0030107D01*
X0051138Y0028534D02*
X0049559Y0028534D01*
X0051132Y0026960D02*
X0051138Y0026960D01*
X0051138Y0020667D02*
X0050185Y0020667D01*
X0051138Y0019094D02*
X0048999Y0019094D01*
X0054755Y0012801D02*
X0088805Y0012801D01*
X0088175Y0014374D02*
X0074824Y0014374D01*
X0074676Y0014350D02*
X0075443Y0014472D01*
X0076183Y0014712D01*
X0076875Y0015065D01*
X0077504Y0015522D01*
X0078053Y0016071D01*
X0078510Y0016700D01*
X0078863Y0017392D01*
X0079103Y0018131D01*
X0079224Y0018899D01*
X0079224Y0019189D01*
X0074386Y0019189D01*
X0074386Y0019386D01*
X0079224Y0019386D01*
X0079224Y0019676D01*
X0079103Y0020443D01*
X0078863Y0021183D01*
X0078510Y0021875D01*
X0078053Y0022504D01*
X0077504Y0023053D01*
X0076875Y0023510D01*
X0076183Y0023863D01*
X0075443Y0024103D01*
X0074676Y0024224D01*
X0074386Y0024224D01*
X0074386Y0019386D01*
X0074189Y0019386D01*
X0074189Y0024224D01*
X0073899Y0024224D01*
X0073131Y0024103D01*
X0072392Y0023863D01*
X0071700Y0023510D01*
X0071071Y0023053D01*
X0070522Y0022504D01*
X0070065Y0021875D01*
X0069712Y0021183D01*
X0069605Y0020853D01*
X0068960Y0022410D01*
X0067410Y0023960D01*
X0065384Y0024799D01*
X0063191Y0024799D01*
X0061165Y0023960D01*
X0059615Y0022410D01*
X0058776Y0020384D01*
X0058776Y0018191D01*
X0059615Y0016165D01*
X0061165Y0014615D01*
X0063191Y0013776D01*
X0065384Y0013776D01*
X0067410Y0014615D01*
X0068960Y0016165D01*
X0069605Y0017722D01*
X0069712Y0017392D01*
X0070065Y0016700D01*
X0070522Y0016071D01*
X0071071Y0015522D01*
X0071700Y0015065D01*
X0072392Y0014712D01*
X0073131Y0014472D01*
X0073899Y0014350D01*
X0074189Y0014350D01*
X0074189Y0019189D01*
X0074386Y0019189D01*
X0074386Y0014350D01*
X0074676Y0014350D01*
X0074386Y0014374D02*
X0074189Y0014374D01*
X0073750Y0014374D02*
X0066828Y0014374D01*
X0068742Y0015947D02*
X0070646Y0015947D01*
X0069670Y0017521D02*
X0069521Y0017521D01*
X0074189Y0017521D02*
X0074386Y0017521D01*
X0074386Y0019094D02*
X0074189Y0019094D01*
X0074189Y0020667D02*
X0074386Y0020667D01*
X0074386Y0022240D02*
X0074189Y0022240D01*
X0074189Y0023814D02*
X0074386Y0023814D01*
X0076279Y0023814D02*
X0088175Y0023814D01*
X0088175Y0022240D02*
X0078244Y0022240D01*
X0079030Y0020667D02*
X0088175Y0020667D01*
X0088175Y0019094D02*
X0079224Y0019094D01*
X0078904Y0017521D02*
X0088175Y0017521D01*
X0088175Y0015947D02*
X0077929Y0015947D01*
X0074386Y0015947D02*
X0074189Y0015947D01*
X0070330Y0022240D02*
X0069030Y0022240D01*
X0067556Y0023814D02*
X0072296Y0023814D01*
X0061747Y0014374D02*
X0056328Y0014374D01*
X0057348Y0015947D02*
X0059833Y0015947D01*
X0059053Y0017521D02*
X0057437Y0017521D01*
X0057437Y0019094D02*
X0058776Y0019094D01*
X0058893Y0020667D02*
X0057437Y0020667D01*
X0057437Y0022240D02*
X0059545Y0022240D01*
X0061019Y0023814D02*
X0057437Y0023814D01*
X0057437Y0025387D02*
X0088645Y0025387D01*
X0089566Y0026960D02*
X0057437Y0026960D01*
X0057437Y0028534D02*
X0091585Y0028534D01*
X0089954Y0011227D02*
X0052630Y0011227D01*
X0049172Y0009654D02*
X0092519Y0009654D01*
X0116551Y0047414D02*
X0051315Y0047414D01*
X0050777Y0048987D02*
X0087680Y0048987D01*
X0088191Y0048775D02*
X0090384Y0048775D01*
X0092410Y0049614D01*
X0093960Y0051165D01*
X0094800Y0053191D01*
X0094800Y0055384D01*
X0093960Y0057410D01*
X0092437Y0058933D01*
X0092437Y0067983D01*
X0097580Y0073126D01*
X0115573Y0073126D01*
X0116360Y0072339D01*
X0124616Y0072339D01*
X0126000Y0073722D01*
X0126000Y0078829D01*
X0125425Y0079404D01*
X0125425Y0080764D01*
X0125425Y0082574D01*
X0125303Y0083028D01*
X0125068Y0083436D01*
X0124735Y0083769D01*
X0124328Y0084004D01*
X0123873Y0084126D01*
X0120488Y0084126D01*
X0117103Y0084126D01*
X0116649Y0084004D01*
X0116241Y0083769D01*
X0115908Y0083436D01*
X0115673Y0083028D01*
X0115551Y0082574D01*
X0115551Y0080764D01*
X0120488Y0080764D01*
X0120488Y0084126D01*
X0120488Y0080764D01*
X0120488Y0080764D01*
X0120488Y0080764D01*
X0115551Y0080764D01*
X0115551Y0079425D01*
X0095649Y0079425D01*
X0094491Y0078946D01*
X0087503Y0071957D01*
X0086617Y0071072D01*
X0086138Y0069914D01*
X0086138Y0058933D01*
X0084614Y0057410D01*
X0083775Y0055384D01*
X0083775Y0053191D01*
X0084614Y0051165D01*
X0086165Y0049614D01*
X0088191Y0048775D01*
X0085219Y0050560D02*
X0049418Y0050560D01*
X0044157Y0050560D02*
X0006575Y0050560D01*
X0006575Y0048987D02*
X0042798Y0048987D01*
X0042260Y0047414D02*
X0006575Y0047414D01*
X0006575Y0045840D02*
X0042279Y0045840D01*
X0042931Y0044267D02*
X0031475Y0044267D01*
X0024668Y0044267D02*
X0011898Y0044267D01*
X0010729Y0044267D02*
X0010139Y0044267D01*
X0008970Y0044267D02*
X0006575Y0044267D01*
X0010139Y0042694D02*
X0010729Y0042694D01*
X0010729Y0041120D02*
X0010139Y0041120D01*
X0010139Y0039547D02*
X0010729Y0039547D01*
X0010729Y0037974D02*
X0010139Y0037974D01*
X0010139Y0036400D02*
X0010729Y0036400D01*
X0010729Y0034827D02*
X0010139Y0034827D01*
X0013434Y0034827D02*
X0024334Y0034827D01*
X0022961Y0036400D02*
X0014948Y0036400D01*
X0015596Y0037974D02*
X0022309Y0037974D01*
X0022209Y0039547D02*
X0015721Y0039547D01*
X0015364Y0041120D02*
X0022447Y0041120D01*
X0023099Y0042694D02*
X0014401Y0042694D01*
X0006575Y0052133D02*
X0084213Y0052133D01*
X0083775Y0053707D02*
X0006575Y0053707D01*
X0006575Y0055280D02*
X0083775Y0055280D01*
X0084384Y0056853D02*
X0074279Y0056853D01*
X0074910Y0057115D02*
X0076460Y0058665D01*
X0077299Y0060691D01*
X0077299Y0062884D01*
X0076460Y0064910D01*
X0074910Y0066460D01*
X0072884Y0067299D01*
X0070691Y0067299D01*
X0068665Y0066460D01*
X0067115Y0064910D01*
X0066470Y0063353D01*
X0066363Y0063683D01*
X0066010Y0064375D01*
X0065553Y0065004D01*
X0065004Y0065553D01*
X0064375Y0066010D01*
X0063683Y0066363D01*
X0062943Y0066603D01*
X0062176Y0066724D01*
X0061787Y0066724D01*
X0061399Y0066724D01*
X0060631Y0066603D01*
X0059892Y0066363D01*
X0059200Y0066010D01*
X0058571Y0065553D01*
X0058022Y0065004D01*
X0057565Y0064375D01*
X0057212Y0063683D01*
X0056972Y0062943D01*
X0056850Y0062176D01*
X0056850Y0061787D01*
X0056850Y0061399D01*
X0056972Y0060631D01*
X0057212Y0059892D01*
X0057565Y0059200D01*
X0058022Y0058571D01*
X0058571Y0058022D01*
X0059200Y0057565D01*
X0059892Y0057212D01*
X0060631Y0056972D01*
X0061399Y0056850D01*
X0061787Y0056850D01*
X0061787Y0061787D01*
X0056850Y0061787D01*
X0061787Y0061787D01*
X0061787Y0061787D01*
X0061787Y0061787D01*
X0061787Y0056850D01*
X0062176Y0056850D01*
X0062943Y0056972D01*
X0063683Y0057212D01*
X0064375Y0057565D01*
X0065004Y0058022D01*
X0065553Y0058571D01*
X0066010Y0059200D01*
X0066363Y0059892D01*
X0066470Y0060222D01*
X0067115Y0058665D01*
X0068665Y0057115D01*
X0070691Y0056276D01*
X0072884Y0056276D01*
X0074910Y0057115D01*
X0076222Y0058427D02*
X0085631Y0058427D01*
X0086138Y0060000D02*
X0077013Y0060000D01*
X0077299Y0061573D02*
X0086138Y0061573D01*
X0086138Y0063147D02*
X0077190Y0063147D01*
X0076539Y0064720D02*
X0086138Y0064720D01*
X0086138Y0066293D02*
X0075076Y0066293D01*
X0075125Y0072587D02*
X0088132Y0072587D01*
X0086593Y0071013D02*
X0006575Y0071013D01*
X0006575Y0069440D02*
X0007749Y0069440D01*
X0009942Y0069440D02*
X0010532Y0069440D01*
X0010532Y0067867D02*
X0009942Y0067867D01*
X0009942Y0066293D02*
X0010532Y0066293D01*
X0010532Y0064720D02*
X0022406Y0064720D01*
X0022406Y0063608D02*
X0022406Y0065940D01*
X0023299Y0068094D01*
X0024948Y0069743D01*
X0027102Y0070636D01*
X0029435Y0070636D01*
X0031589Y0069743D01*
X0033238Y0068094D01*
X0034131Y0065940D01*
X0034131Y0063608D01*
X0033238Y0061453D01*
X0031589Y0059804D01*
X0029435Y0058911D01*
X0027102Y0058911D01*
X0024948Y0059804D01*
X0023299Y0061453D01*
X0022406Y0063608D01*
X0022597Y0063147D02*
X0015268Y0063147D01*
X0014447Y0061573D02*
X0023249Y0061573D01*
X0024752Y0060000D02*
X0012515Y0060000D01*
X0010532Y0060000D02*
X0009942Y0060000D01*
X0009942Y0061573D02*
X0010532Y0061573D01*
X0010532Y0063147D02*
X0009942Y0063147D01*
X0007959Y0060000D02*
X0006575Y0060000D01*
X0006575Y0058427D02*
X0058166Y0058427D01*
X0057177Y0060000D02*
X0031785Y0060000D01*
X0033288Y0061573D02*
X0056850Y0061573D01*
X0057038Y0063147D02*
X0033940Y0063147D01*
X0034131Y0064720D02*
X0057816Y0064720D01*
X0059756Y0066293D02*
X0033984Y0066293D01*
X0033333Y0067867D02*
X0086138Y0067867D01*
X0086138Y0069440D02*
X0031893Y0069440D01*
X0024644Y0069440D02*
X0012725Y0069440D01*
X0014525Y0067867D02*
X0023204Y0067867D01*
X0022553Y0066293D02*
X0015303Y0066293D01*
X0015125Y0072587D02*
X0068449Y0072587D01*
X0067106Y0074160D02*
X0016469Y0074160D01*
X0017118Y0075733D02*
X0066457Y0075733D01*
X0066457Y0077306D02*
X0017118Y0077306D01*
X0016691Y0078880D02*
X0066884Y0078880D01*
X0067914Y0080453D02*
X0015660Y0080453D01*
X0014223Y0082026D02*
X0069352Y0082026D01*
X0067436Y0083600D02*
X0016139Y0083600D01*
X0016889Y0085173D02*
X0066686Y0085173D01*
X0066457Y0086746D02*
X0017118Y0086746D01*
X0016923Y0088320D02*
X0066652Y0088320D01*
X0071787Y0086787D02*
X0101787Y0086787D01*
X0109287Y0094287D01*
X0112218Y0097760D02*
X0174165Y0097760D01*
X0174165Y0099333D02*
X0141287Y0099333D01*
X0142860Y0100906D02*
X0174165Y0100906D01*
X0174165Y0096186D02*
X0113401Y0096186D01*
X0113815Y0094613D02*
X0174165Y0094613D01*
X0174165Y0093040D02*
X0113671Y0093040D01*
X0112869Y0091466D02*
X0174165Y0091466D01*
X0174165Y0089893D02*
X0110509Y0089893D01*
X0107774Y0088320D02*
X0174165Y0088320D01*
X0174165Y0086746D02*
X0106201Y0086746D01*
X0104627Y0085173D02*
X0133328Y0085173D01*
X0132732Y0084577D02*
X0132732Y0058998D01*
X0134116Y0057614D01*
X0159695Y0057614D01*
X0161079Y0058998D01*
X0161079Y0084577D01*
X0159695Y0085961D01*
X0134116Y0085961D01*
X0132732Y0084577D01*
X0132732Y0083600D02*
X0124904Y0083600D01*
X0125425Y0082026D02*
X0132732Y0082026D01*
X0132732Y0080453D02*
X0125425Y0080453D01*
X0125425Y0080764D02*
X0120488Y0080764D01*
X0125425Y0080764D01*
X0125949Y0078880D02*
X0132732Y0078880D01*
X0132732Y0077306D02*
X0126000Y0077306D01*
X0126000Y0075733D02*
X0132732Y0075733D01*
X0132732Y0074160D02*
X0126000Y0074160D01*
X0124864Y0072587D02*
X0132732Y0072587D01*
X0132732Y0071013D02*
X0124839Y0071013D01*
X0126000Y0069440D02*
X0132732Y0069440D01*
X0132732Y0067867D02*
X0126000Y0067867D01*
X0126000Y0066293D02*
X0132732Y0066293D01*
X0132732Y0064720D02*
X0126000Y0064720D01*
X0126000Y0063147D02*
X0132732Y0063147D01*
X0132732Y0061573D02*
X0126000Y0061573D01*
X0125742Y0060000D02*
X0132732Y0060000D01*
X0133303Y0058427D02*
X0124425Y0058427D01*
X0124425Y0056853D02*
X0174165Y0056853D01*
X0174165Y0055280D02*
X0124425Y0055280D01*
X0124425Y0053707D02*
X0174165Y0053707D01*
X0174165Y0052133D02*
X0124425Y0052133D01*
X0124425Y0050560D02*
X0174165Y0050560D01*
X0174165Y0048987D02*
X0124425Y0048987D01*
X0124425Y0047414D02*
X0174165Y0047414D01*
X0174165Y0045840D02*
X0124425Y0045840D01*
X0124425Y0044267D02*
X0174165Y0044267D01*
X0174165Y0042694D02*
X0124425Y0042694D01*
X0124425Y0041120D02*
X0174165Y0041120D01*
X0174165Y0039547D02*
X0124425Y0039547D01*
X0124425Y0037974D02*
X0174165Y0037974D01*
X0174165Y0036400D02*
X0124425Y0036400D01*
X0124425Y0034827D02*
X0174165Y0034827D01*
X0174165Y0033254D02*
X0124425Y0033254D01*
X0124962Y0031680D02*
X0174165Y0031680D01*
X0174165Y0030107D02*
X0126535Y0030107D01*
X0116551Y0048987D02*
X0090895Y0048987D01*
X0093356Y0050560D02*
X0116551Y0050560D01*
X0116551Y0052133D02*
X0094362Y0052133D01*
X0094800Y0053707D02*
X0116551Y0053707D01*
X0116551Y0055280D02*
X0094800Y0055280D01*
X0094191Y0056853D02*
X0116551Y0056853D01*
X0116551Y0058427D02*
X0092943Y0058427D01*
X0092437Y0060000D02*
X0115234Y0060000D01*
X0114976Y0061573D02*
X0092437Y0061573D01*
X0092437Y0063147D02*
X0114976Y0063147D01*
X0114976Y0064720D02*
X0092437Y0064720D01*
X0092437Y0066293D02*
X0114976Y0066293D01*
X0114976Y0067867D02*
X0092437Y0067867D01*
X0093894Y0069440D02*
X0114976Y0069440D01*
X0116137Y0071013D02*
X0095467Y0071013D01*
X0097041Y0072587D02*
X0116112Y0072587D01*
X0120488Y0076276D02*
X0096276Y0076276D01*
X0089287Y0069287D01*
X0089287Y0054287D01*
X0089706Y0074160D02*
X0076469Y0074160D01*
X0077118Y0075733D02*
X0091279Y0075733D01*
X0092852Y0077306D02*
X0077118Y0077306D01*
X0076691Y0078880D02*
X0094426Y0078880D01*
X0086787Y0091787D02*
X0089287Y0094287D01*
X0086787Y0091787D02*
X0036787Y0091787D01*
X0029287Y0099287D01*
X0029287Y0111787D01*
X0024287Y0116787D01*
X0011787Y0116787D01*
X0013965Y0111919D02*
X0024701Y0111919D01*
X0026138Y0110346D02*
X0015767Y0110346D01*
X0016735Y0108773D02*
X0026138Y0108773D01*
X0026138Y0107199D02*
X0017118Y0107199D01*
X0017076Y0105626D02*
X0026138Y0105626D01*
X0026138Y0104053D02*
X0016425Y0104053D01*
X0015018Y0102480D02*
X0026138Y0102480D01*
X0026138Y0100906D02*
X0015207Y0100906D01*
X0016503Y0099333D02*
X0026138Y0099333D01*
X0026511Y0097760D02*
X0017118Y0097760D01*
X0017118Y0096186D02*
X0027934Y0096186D01*
X0029508Y0094613D02*
X0016657Y0094613D01*
X0015578Y0093040D02*
X0031081Y0093040D01*
X0032654Y0091466D02*
X0014421Y0091466D01*
X0016221Y0089893D02*
X0034228Y0089893D01*
X0023128Y0113493D02*
X0016031Y0113493D01*
X0029287Y0124287D02*
X0029287Y0129287D01*
X0011787Y0146787D01*
X0006575Y0148133D02*
X0007268Y0149807D01*
X0008768Y0151307D01*
X0010727Y0152118D01*
X0010866Y0152118D01*
X0010674Y0152149D01*
X0009962Y0152380D01*
X0009295Y0152720D01*
X0008689Y0153160D01*
X0008160Y0153689D01*
X0007720Y0154295D01*
X0007380Y0154962D01*
X0007149Y0155674D01*
X0007031Y0156413D01*
X0007031Y0156591D01*
X0011590Y0156591D01*
X0011590Y0156984D01*
X0007031Y0156984D01*
X0007031Y0157162D01*
X0007149Y0157901D01*
X0007380Y0158613D01*
X0007720Y0159280D01*
X0008160Y0159886D01*
X0008689Y0160415D01*
X0009295Y0160855D01*
X0009962Y0161195D01*
X0010674Y0161426D01*
X0010866Y0161457D01*
X0010727Y0161457D01*
X0008768Y0162268D01*
X0007268Y0163768D01*
X0006575Y0165442D01*
X0006575Y0148133D01*
X0006575Y0149679D02*
X0007215Y0149679D01*
X0006575Y0151252D02*
X0008714Y0151252D01*
X0009149Y0152826D02*
X0006575Y0152826D01*
X0006575Y0154399D02*
X0007667Y0154399D01*
X0007101Y0155972D02*
X0006575Y0155972D01*
X0006575Y0157546D02*
X0007092Y0157546D01*
X0006575Y0159119D02*
X0007638Y0159119D01*
X0006575Y0160692D02*
X0009071Y0160692D01*
X0008774Y0162265D02*
X0006575Y0162265D01*
X0006575Y0163839D02*
X0007239Y0163839D01*
X0006587Y0165412D02*
X0006575Y0165412D01*
X0012708Y0161457D02*
X0012848Y0161457D01*
X0014807Y0162268D01*
X0016307Y0163768D01*
X0017118Y0165727D01*
X0017118Y0167848D01*
X0016307Y0169807D01*
X0014807Y0171307D01*
X0013646Y0171787D01*
X0014807Y0172268D01*
X0016307Y0173768D01*
X0017118Y0175727D01*
X0017118Y0177848D01*
X0016307Y0179807D01*
X0014807Y0181307D01*
X0013646Y0181787D01*
X0014807Y0182268D01*
X0016307Y0183768D01*
X0017118Y0185727D01*
X0017118Y0187848D01*
X0016307Y0189807D01*
X0014807Y0191307D01*
X0012848Y0192118D01*
X0010727Y0192118D01*
X0008768Y0191307D01*
X0007268Y0189807D01*
X0006575Y0188133D01*
X0006575Y0216653D01*
X0006656Y0216513D01*
X0009013Y0214156D01*
X0011900Y0212489D01*
X0015120Y0211626D01*
X0018454Y0211626D01*
X0021675Y0212489D01*
X0024562Y0214156D01*
X0026919Y0216513D01*
X0028586Y0219400D01*
X0029449Y0222620D01*
X0029449Y0225954D01*
X0028586Y0229175D01*
X0026919Y0232062D01*
X0025760Y0233220D01*
X0155315Y0233220D01*
X0154156Y0232062D01*
X0152489Y0229175D01*
X0151626Y0225954D01*
X0151626Y0222620D01*
X0152489Y0219400D01*
X0154156Y0216513D01*
X0156513Y0214156D01*
X0159400Y0212489D01*
X0162620Y0211626D01*
X0165954Y0211626D01*
X0169175Y0212489D01*
X0172062Y0214156D01*
X0174165Y0216259D01*
X0174165Y0204150D01*
X0144307Y0204150D01*
X0144307Y0208044D01*
X0143828Y0209201D01*
X0142808Y0210221D01*
X0142950Y0210562D01*
X0142950Y0213013D01*
X0142011Y0215278D01*
X0140278Y0217011D01*
X0138013Y0217950D01*
X0135562Y0217950D01*
X0133297Y0217011D01*
X0131563Y0215278D01*
X0130625Y0213013D01*
X0130625Y0210562D01*
X0131563Y0208297D01*
X0133297Y0206563D01*
X0135562Y0205625D01*
X0138008Y0205625D01*
X0138008Y0204150D01*
X0100809Y0204150D01*
X0099937Y0203278D01*
X0099937Y0219914D01*
X0099707Y0220469D01*
X0099799Y0220691D01*
X0099799Y0222884D01*
X0098960Y0224910D01*
X0097410Y0226460D01*
X0095384Y0227299D01*
X0093191Y0227299D01*
X0091165Y0226460D01*
X0089615Y0224910D01*
X0088970Y0223353D01*
X0088863Y0223683D01*
X0088510Y0224375D01*
X0088053Y0225004D01*
X0087504Y0225553D01*
X0086875Y0226010D01*
X0086183Y0226363D01*
X0085443Y0226603D01*
X0084676Y0226724D01*
X0084287Y0226724D01*
X0083899Y0226724D01*
X0083131Y0226603D01*
X0082392Y0226363D01*
X0081700Y0226010D01*
X0081071Y0225553D01*
X0080522Y0225004D01*
X0080065Y0224375D01*
X0079712Y0223683D01*
X0079472Y0222943D01*
X0079350Y0222176D01*
X0079350Y0221787D01*
X0079350Y0221399D01*
X0079472Y0220631D01*
X0079712Y0219892D01*
X0080065Y0219200D01*
X0080522Y0218571D01*
X0081071Y0218022D01*
X0081700Y0217565D01*
X0082392Y0217212D01*
X0083131Y0216972D01*
X0083899Y0216850D01*
X0084287Y0216850D01*
X0084287Y0221787D01*
X0084287Y0221787D01*
X0079350Y0221787D01*
X0084287Y0221787D01*
X0084287Y0221787D01*
X0084287Y0216850D01*
X0084676Y0216850D01*
X0085443Y0216972D01*
X0086183Y0217212D01*
X0086875Y0217565D01*
X0087504Y0218022D01*
X0088053Y0218571D01*
X0088510Y0219200D01*
X0088863Y0219892D01*
X0088970Y0220222D01*
X0089615Y0218665D01*
X0091165Y0217115D01*
X0093191Y0216276D01*
X0093638Y0216276D01*
X0093638Y0207732D01*
X0092410Y0208960D01*
X0090974Y0209555D01*
X0089457Y0211072D01*
X0088572Y0211957D01*
X0087414Y0212437D01*
X0058092Y0212437D01*
X0052912Y0217617D01*
X0053960Y0218665D01*
X0054799Y0220691D01*
X0054799Y0222884D01*
X0053960Y0224910D01*
X0052410Y0226460D01*
X0050384Y0227299D01*
X0048191Y0227299D01*
X0046165Y0226460D01*
X0044615Y0224910D01*
X0043970Y0223353D01*
X0043863Y0223683D01*
X0043510Y0224375D01*
X0043053Y0225004D01*
X0042504Y0225553D01*
X0041875Y0226010D01*
X0041183Y0226363D01*
X0040443Y0226603D01*
X0039676Y0226724D01*
X0039287Y0226724D01*
X0038899Y0226724D01*
X0038131Y0226603D01*
X0037392Y0226363D01*
X0036700Y0226010D01*
X0036071Y0225553D01*
X0035522Y0225004D01*
X0035065Y0224375D01*
X0034712Y0223683D01*
X0034472Y0222943D01*
X0034350Y0222176D01*
X0034350Y0221787D01*
X0034350Y0221399D01*
X0034472Y0220631D01*
X0034712Y0219892D01*
X0035065Y0219200D01*
X0035522Y0218571D01*
X0036071Y0218022D01*
X0036700Y0217565D01*
X0037392Y0217212D01*
X0038131Y0216972D01*
X0038899Y0216850D01*
X0039287Y0216850D01*
X0039287Y0221787D01*
X0039287Y0221787D01*
X0034350Y0221787D01*
X0039287Y0221787D01*
X0039287Y0221787D01*
X0039287Y0216850D01*
X0039676Y0216850D01*
X0040443Y0216972D01*
X0041183Y0217212D01*
X0041875Y0217565D01*
X0042504Y0218022D01*
X0043053Y0218571D01*
X0043510Y0219200D01*
X0043863Y0219892D01*
X0043970Y0220222D01*
X0044615Y0218665D01*
X0046138Y0217142D01*
X0046138Y0216161D01*
X0046617Y0215003D01*
X0047503Y0214117D01*
X0055003Y0206617D01*
X0056161Y0206138D01*
X0084088Y0206138D01*
X0083775Y0205384D01*
X0083775Y0203191D01*
X0084614Y0201165D01*
X0086165Y0199614D01*
X0088191Y0198775D01*
X0090384Y0198775D01*
X0092410Y0199614D01*
X0093638Y0200842D01*
X0093638Y0167732D01*
X0092437Y0168933D01*
X0092437Y0169914D01*
X0091957Y0171072D01*
X0089457Y0173572D01*
X0088572Y0174457D01*
X0087414Y0174937D01*
X0076182Y0174937D01*
X0076195Y0174962D01*
X0076426Y0175674D01*
X0076543Y0176413D01*
X0076543Y0176591D01*
X0071984Y0176591D01*
X0071984Y0176984D01*
X0076543Y0176984D01*
X0076543Y0177162D01*
X0076426Y0177901D01*
X0076195Y0178613D01*
X0075855Y0179280D01*
X0075415Y0179886D01*
X0074886Y0180415D01*
X0074280Y0180855D01*
X0073613Y0181195D01*
X0072901Y0181426D01*
X0072708Y0181457D01*
X0072848Y0181457D01*
X0074807Y0182268D01*
X0076307Y0183768D01*
X0077118Y0185727D01*
X0077118Y0187848D01*
X0076307Y0189807D01*
X0074807Y0191307D01*
X0072848Y0192118D01*
X0070727Y0192118D01*
X0068768Y0191307D01*
X0067268Y0189807D01*
X0066457Y0187848D01*
X0066457Y0185727D01*
X0067268Y0183768D01*
X0068768Y0182268D01*
X0070727Y0181457D01*
X0070866Y0181457D01*
X0070674Y0181426D01*
X0069962Y0181195D01*
X0069295Y0180855D01*
X0068689Y0180415D01*
X0068160Y0179886D01*
X0067720Y0179280D01*
X0067380Y0178613D01*
X0067149Y0177901D01*
X0067031Y0177162D01*
X0067031Y0176984D01*
X0071590Y0176984D01*
X0071590Y0176591D01*
X0067031Y0176591D01*
X0067031Y0176413D01*
X0067149Y0175674D01*
X0067380Y0174962D01*
X0067393Y0174937D01*
X0027541Y0174937D01*
X0026852Y0175626D01*
X0025188Y0176315D01*
X0023387Y0176315D01*
X0021723Y0175626D01*
X0020449Y0174352D01*
X0019760Y0172688D01*
X0019760Y0170887D01*
X0020449Y0169223D01*
X0021723Y0167949D01*
X0023387Y0167260D01*
X0025188Y0167260D01*
X0026852Y0167949D01*
X0027541Y0168638D01*
X0066784Y0168638D01*
X0066457Y0167848D01*
X0066457Y0165727D01*
X0067268Y0163768D01*
X0068768Y0162268D01*
X0069929Y0161787D01*
X0068768Y0161307D01*
X0067268Y0159807D01*
X0066457Y0157848D01*
X0066457Y0155727D01*
X0067268Y0153768D01*
X0068768Y0152268D01*
X0069929Y0151787D01*
X0068768Y0151307D01*
X0067268Y0149807D01*
X0066457Y0147848D01*
X0066457Y0145727D01*
X0067268Y0143768D01*
X0068768Y0142268D01*
X0069929Y0141787D01*
X0068768Y0141307D01*
X0067268Y0139807D01*
X0066457Y0137848D01*
X0066457Y0135727D01*
X0066784Y0134937D01*
X0062541Y0134937D01*
X0061852Y0135626D01*
X0060188Y0136315D01*
X0058387Y0136315D01*
X0056723Y0135626D01*
X0055449Y0134352D01*
X0054760Y0132688D01*
X0054760Y0130887D01*
X0055449Y0129223D01*
X0056723Y0127949D01*
X0058387Y0127260D01*
X0060188Y0127260D01*
X0061852Y0127949D01*
X0062541Y0128638D01*
X0066784Y0128638D01*
X0066457Y0127848D01*
X0066457Y0125727D01*
X0066784Y0124937D01*
X0033092Y0124937D01*
X0032437Y0125592D01*
X0032437Y0129914D01*
X0031957Y0131072D01*
X0017118Y0145911D01*
X0017118Y0147848D01*
X0016307Y0149807D01*
X0014807Y0151307D01*
X0012848Y0152118D01*
X0012708Y0152118D01*
X0012901Y0152149D01*
X0013613Y0152380D01*
X0014280Y0152720D01*
X0014886Y0153160D01*
X0015415Y0153689D01*
X0015855Y0154295D01*
X0016195Y0154962D01*
X0016426Y0155674D01*
X0016543Y0156413D01*
X0016543Y0156591D01*
X0011984Y0156591D01*
X0011984Y0156984D01*
X0016543Y0156984D01*
X0016543Y0157162D01*
X0016426Y0157901D01*
X0016195Y0158613D01*
X0015855Y0159280D01*
X0015415Y0159886D01*
X0014886Y0160415D01*
X0014280Y0160855D01*
X0013613Y0161195D01*
X0012901Y0161426D01*
X0012708Y0161457D01*
X0014504Y0160692D02*
X0068153Y0160692D01*
X0068774Y0162265D02*
X0014800Y0162265D01*
X0016336Y0163839D02*
X0067239Y0163839D01*
X0066587Y0165412D02*
X0016988Y0165412D01*
X0017118Y0166985D02*
X0066457Y0166985D01*
X0066751Y0168559D02*
X0027462Y0168559D01*
X0024287Y0171787D02*
X0086787Y0171787D01*
X0089287Y0169287D01*
X0089287Y0164287D01*
X0092811Y0168559D02*
X0093638Y0168559D01*
X0093638Y0170132D02*
X0092347Y0170132D01*
X0091324Y0171705D02*
X0093638Y0171705D01*
X0093638Y0173279D02*
X0089750Y0173279D01*
X0087619Y0174852D02*
X0093638Y0174852D01*
X0093638Y0176425D02*
X0076543Y0176425D01*
X0076395Y0177999D02*
X0093638Y0177999D01*
X0093638Y0179572D02*
X0075643Y0179572D01*
X0073710Y0181145D02*
X0093638Y0181145D01*
X0093638Y0182719D02*
X0075257Y0182719D01*
X0076524Y0184292D02*
X0093638Y0184292D01*
X0093638Y0185865D02*
X0077118Y0185865D01*
X0077118Y0187439D02*
X0093638Y0187439D01*
X0093638Y0189012D02*
X0076636Y0189012D01*
X0075528Y0190585D02*
X0093638Y0190585D01*
X0093638Y0192158D02*
X0006575Y0192158D01*
X0006575Y0190585D02*
X0008046Y0190585D01*
X0006939Y0189012D02*
X0006575Y0189012D01*
X0006575Y0193732D02*
X0093638Y0193732D01*
X0093638Y0195305D02*
X0006575Y0195305D01*
X0006575Y0196878D02*
X0093638Y0196878D01*
X0093638Y0198452D02*
X0006575Y0198452D01*
X0006575Y0200025D02*
X0085754Y0200025D01*
X0084435Y0201598D02*
X0006575Y0201598D01*
X0006575Y0203172D02*
X0083783Y0203172D01*
X0083775Y0204745D02*
X0006575Y0204745D01*
X0006575Y0206318D02*
X0055725Y0206318D01*
X0053729Y0207892D02*
X0006575Y0207892D01*
X0006575Y0209465D02*
X0052156Y0209465D01*
X0050582Y0211038D02*
X0006575Y0211038D01*
X0006575Y0212612D02*
X0011688Y0212612D01*
X0008984Y0214185D02*
X0006575Y0214185D01*
X0006575Y0215758D02*
X0007411Y0215758D01*
X0021887Y0212612D02*
X0049009Y0212612D01*
X0047436Y0214185D02*
X0024591Y0214185D01*
X0026164Y0215758D02*
X0046305Y0215758D01*
X0045948Y0217331D02*
X0041417Y0217331D01*
X0039287Y0217331D02*
X0039287Y0217331D01*
X0039287Y0218905D02*
X0039287Y0218905D01*
X0039287Y0220478D02*
X0039287Y0220478D01*
X0039287Y0221788D02*
X0039287Y0226724D01*
X0039287Y0221788D01*
X0039287Y0221788D01*
X0039287Y0222051D02*
X0039287Y0222051D01*
X0039287Y0223625D02*
X0039287Y0223625D01*
X0039287Y0225198D02*
X0039287Y0225198D01*
X0035716Y0225198D02*
X0029449Y0225198D01*
X0029449Y0223625D02*
X0034693Y0223625D01*
X0034350Y0222051D02*
X0029296Y0222051D01*
X0028875Y0220478D02*
X0034522Y0220478D01*
X0035279Y0218905D02*
X0028300Y0218905D01*
X0027392Y0217331D02*
X0037158Y0217331D01*
X0043296Y0218905D02*
X0044515Y0218905D01*
X0044083Y0223625D02*
X0043881Y0223625D01*
X0042859Y0225198D02*
X0044903Y0225198D01*
X0046917Y0226771D02*
X0029230Y0226771D01*
X0028808Y0228345D02*
X0152266Y0228345D01*
X0151845Y0226771D02*
X0096658Y0226771D01*
X0098672Y0225198D02*
X0151626Y0225198D01*
X0151626Y0223625D02*
X0099492Y0223625D01*
X0099799Y0222051D02*
X0151778Y0222051D01*
X0152200Y0220478D02*
X0099711Y0220478D01*
X0099937Y0218905D02*
X0152775Y0218905D01*
X0153683Y0217331D02*
X0139505Y0217331D01*
X0141531Y0215758D02*
X0154911Y0215758D01*
X0156484Y0214185D02*
X0142464Y0214185D01*
X0142950Y0212612D02*
X0159188Y0212612D01*
X0169387Y0212612D02*
X0174165Y0212612D01*
X0174165Y0214185D02*
X0172091Y0214185D01*
X0173664Y0215758D02*
X0174165Y0215758D01*
X0174165Y0211038D02*
X0142950Y0211038D01*
X0143564Y0209465D02*
X0174165Y0209465D01*
X0174165Y0207892D02*
X0144307Y0207892D01*
X0144307Y0206318D02*
X0174165Y0206318D01*
X0174165Y0204745D02*
X0144307Y0204745D01*
X0141157Y0207417D02*
X0136787Y0211787D01*
X0134069Y0217331D02*
X0099937Y0217331D01*
X0099937Y0215758D02*
X0132044Y0215758D01*
X0131111Y0214185D02*
X0099937Y0214185D01*
X0099937Y0212612D02*
X0130625Y0212612D01*
X0130625Y0211038D02*
X0099937Y0211038D01*
X0099937Y0209465D02*
X0131079Y0209465D01*
X0131969Y0207892D02*
X0099937Y0207892D01*
X0099937Y0206318D02*
X0133888Y0206318D01*
X0138008Y0204745D02*
X0099937Y0204745D01*
X0093638Y0207892D02*
X0093479Y0207892D01*
X0093638Y0209465D02*
X0091192Y0209465D01*
X0089491Y0211038D02*
X0093638Y0211038D01*
X0093638Y0212612D02*
X0057917Y0212612D01*
X0056344Y0214185D02*
X0093638Y0214185D01*
X0093638Y0215758D02*
X0054771Y0215758D01*
X0053198Y0217331D02*
X0082158Y0217331D01*
X0084287Y0217331D02*
X0084287Y0217331D01*
X0084287Y0218905D02*
X0084287Y0218905D01*
X0084287Y0220478D02*
X0084287Y0220478D01*
X0084287Y0221788D02*
X0084287Y0226724D01*
X0084287Y0221788D01*
X0084287Y0221788D01*
X0084287Y0222051D02*
X0084287Y0222051D01*
X0084287Y0223625D02*
X0084287Y0223625D01*
X0084287Y0225198D02*
X0084287Y0225198D01*
X0080716Y0225198D02*
X0053672Y0225198D01*
X0054492Y0223625D02*
X0079693Y0223625D01*
X0079350Y0222051D02*
X0054799Y0222051D01*
X0054711Y0220478D02*
X0079522Y0220478D01*
X0080279Y0218905D02*
X0054059Y0218905D01*
X0049287Y0216787D02*
X0049287Y0221787D01*
X0049287Y0216787D02*
X0056787Y0209287D01*
X0086787Y0209287D01*
X0089287Y0206787D01*
X0089287Y0204287D01*
X0092820Y0200025D02*
X0093638Y0200025D01*
X0090948Y0217331D02*
X0086417Y0217331D01*
X0088296Y0218905D02*
X0089515Y0218905D01*
X0089083Y0223625D02*
X0088881Y0223625D01*
X0087859Y0225198D02*
X0089903Y0225198D01*
X0091917Y0226771D02*
X0051658Y0226771D01*
X0028157Y0229918D02*
X0152918Y0229918D01*
X0153826Y0231491D02*
X0027248Y0231491D01*
X0025916Y0233065D02*
X0155159Y0233065D01*
X0141157Y0207417D02*
X0141157Y0193028D01*
X0141157Y0189287D01*
X0141157Y0187122D01*
X0161787Y0146787D02*
X0164287Y0144287D01*
X0164287Y0118717D01*
X0164780Y0118224D01*
X0164780Y0112319D01*
X0156906Y0112319D02*
X0156906Y0118224D01*
X0156906Y0136669D01*
X0154287Y0139287D01*
X0101787Y0139287D01*
X0091787Y0129287D01*
X0089287Y0129287D01*
X0081787Y0121787D01*
X0031787Y0121787D01*
X0029287Y0124287D01*
X0032437Y0126079D02*
X0066457Y0126079D01*
X0066457Y0127653D02*
X0061136Y0127653D01*
X0057439Y0127653D02*
X0032437Y0127653D01*
X0032437Y0129226D02*
X0055448Y0129226D01*
X0054796Y0130799D02*
X0032070Y0130799D01*
X0030656Y0132373D02*
X0054760Y0132373D01*
X0055281Y0133946D02*
X0029083Y0133946D01*
X0027510Y0135519D02*
X0056616Y0135519D01*
X0058768Y0137268D02*
X0060727Y0136457D01*
X0062848Y0136457D01*
X0064807Y0137268D01*
X0066307Y0138768D01*
X0067118Y0140727D01*
X0067118Y0142848D01*
X0066307Y0144807D01*
X0064807Y0146307D01*
X0063646Y0146787D01*
X0064807Y0147268D01*
X0066307Y0148768D01*
X0067118Y0150727D01*
X0067118Y0152848D01*
X0066307Y0154807D01*
X0064807Y0156307D01*
X0062848Y0157118D01*
X0060727Y0157118D01*
X0058768Y0156307D01*
X0057268Y0154807D01*
X0056457Y0152848D01*
X0056457Y0150727D01*
X0057268Y0148768D01*
X0058768Y0147268D01*
X0059929Y0146787D01*
X0058768Y0146307D01*
X0057268Y0144807D01*
X0056457Y0142848D01*
X0056457Y0140727D01*
X0057268Y0138768D01*
X0058768Y0137268D01*
X0059192Y0137092D02*
X0025937Y0137092D01*
X0024363Y0138666D02*
X0057370Y0138666D01*
X0056659Y0140239D02*
X0022790Y0140239D01*
X0021217Y0141812D02*
X0056457Y0141812D01*
X0056680Y0143386D02*
X0019643Y0143386D01*
X0018070Y0144959D02*
X0057420Y0144959D01*
X0059313Y0146532D02*
X0017118Y0146532D01*
X0017011Y0148106D02*
X0057930Y0148106D01*
X0056891Y0149679D02*
X0016360Y0149679D01*
X0014861Y0151252D02*
X0056457Y0151252D01*
X0056457Y0152826D02*
X0014426Y0152826D01*
X0015908Y0154399D02*
X0057099Y0154399D01*
X0058433Y0155972D02*
X0016473Y0155972D01*
X0016483Y0157546D02*
X0066457Y0157546D01*
X0066457Y0155972D02*
X0065141Y0155972D01*
X0066476Y0154399D02*
X0067007Y0154399D01*
X0067118Y0152826D02*
X0068210Y0152826D01*
X0068714Y0151252D02*
X0067118Y0151252D01*
X0067215Y0149679D02*
X0066684Y0149679D01*
X0066564Y0148106D02*
X0065644Y0148106D01*
X0066457Y0146532D02*
X0064262Y0146532D01*
X0066155Y0144959D02*
X0066775Y0144959D01*
X0066895Y0143386D02*
X0067650Y0143386D01*
X0067118Y0141812D02*
X0069868Y0141812D01*
X0067700Y0140239D02*
X0066916Y0140239D01*
X0066796Y0138666D02*
X0066205Y0138666D01*
X0066457Y0137092D02*
X0064383Y0137092D01*
X0066543Y0135519D02*
X0061959Y0135519D01*
X0059287Y0131787D02*
X0084287Y0131787D01*
X0099287Y0146787D01*
X0161787Y0146787D01*
X0141157Y0118224D02*
X0141157Y0112319D01*
X0141157Y0103657D01*
X0139287Y0101787D01*
X0076787Y0101787D01*
X0071787Y0096787D01*
X0074287Y0106787D02*
X0091787Y0124287D01*
X0129287Y0124287D01*
X0131787Y0121787D01*
X0131787Y0119720D01*
X0133283Y0118224D01*
X0133283Y0112319D01*
X0125409Y0112319D02*
X0125409Y0118224D01*
X0117535Y0118224D02*
X0117535Y0112319D01*
X0109661Y0112319D02*
X0109661Y0118224D01*
X0089287Y0149287D02*
X0096787Y0156787D01*
X0096787Y0219287D01*
X0094287Y0221787D01*
X0068046Y0190585D02*
X0015528Y0190585D01*
X0016636Y0189012D02*
X0066939Y0189012D01*
X0066457Y0187439D02*
X0017118Y0187439D01*
X0017118Y0185865D02*
X0066457Y0185865D01*
X0067051Y0184292D02*
X0016524Y0184292D01*
X0015257Y0182719D02*
X0068317Y0182719D01*
X0069864Y0181145D02*
X0014968Y0181145D01*
X0016404Y0179572D02*
X0067932Y0179572D01*
X0067180Y0177999D02*
X0017056Y0177999D01*
X0017118Y0176425D02*
X0067031Y0176425D01*
X0066983Y0159119D02*
X0015937Y0159119D01*
X0016824Y0168559D02*
X0021113Y0168559D01*
X0020072Y0170132D02*
X0015981Y0170132D01*
X0013844Y0171705D02*
X0019760Y0171705D01*
X0020005Y0173279D02*
X0015817Y0173279D01*
X0016756Y0174852D02*
X0020949Y0174852D01*
X0071787Y0156787D02*
X0084287Y0156787D01*
X0076138Y0083600D02*
X0116072Y0083600D01*
X0115551Y0082026D02*
X0074223Y0082026D01*
X0075660Y0080453D02*
X0115551Y0080453D01*
X0120488Y0080764D02*
X0120488Y0080764D01*
X0120488Y0082026D02*
X0120488Y0082026D01*
X0120488Y0083600D02*
X0120488Y0083600D01*
X0160483Y0085173D02*
X0174165Y0085173D01*
X0174165Y0083600D02*
X0161079Y0083600D01*
X0161079Y0082026D02*
X0174165Y0082026D01*
X0174165Y0080453D02*
X0161079Y0080453D01*
X0161079Y0078880D02*
X0174165Y0078880D01*
X0174165Y0077306D02*
X0161079Y0077306D01*
X0161079Y0075733D02*
X0174165Y0075733D01*
X0174165Y0074160D02*
X0161079Y0074160D01*
X0161079Y0072587D02*
X0174165Y0072587D01*
X0174165Y0071013D02*
X0161079Y0071013D01*
X0161079Y0069440D02*
X0174165Y0069440D01*
X0174165Y0067867D02*
X0161079Y0067867D01*
X0161079Y0066293D02*
X0174165Y0066293D01*
X0174165Y0064720D02*
X0161079Y0064720D01*
X0161079Y0063147D02*
X0174165Y0063147D01*
X0174165Y0061573D02*
X0161079Y0061573D01*
X0161079Y0060000D02*
X0174165Y0060000D01*
X0174165Y0058427D02*
X0160508Y0058427D01*
X0169265Y0028534D02*
X0174165Y0028534D01*
X0174165Y0026960D02*
X0171990Y0026960D01*
X0173594Y0025387D02*
X0174165Y0025387D01*
X0069296Y0056853D02*
X0062195Y0056853D01*
X0061787Y0056853D02*
X0061787Y0056853D01*
X0061380Y0056853D02*
X0006575Y0056853D01*
X0006575Y0072587D02*
X0008449Y0072587D01*
X0007106Y0074160D02*
X0006575Y0074160D01*
X0006575Y0028534D02*
X0011810Y0028534D01*
X0009085Y0026960D02*
X0006575Y0026960D01*
X0006575Y0025387D02*
X0007481Y0025387D01*
X0021765Y0028534D02*
X0044016Y0028534D01*
X0042443Y0026960D02*
X0024490Y0026960D01*
X0026094Y0025387D02*
X0041825Y0025387D01*
X0041825Y0023814D02*
X0027351Y0023814D01*
X0061787Y0058427D02*
X0061787Y0058427D01*
X0061787Y0060000D02*
X0061787Y0060000D01*
X0061787Y0061573D02*
X0061787Y0061573D01*
X0061787Y0061788D02*
X0061787Y0066724D01*
X0061787Y0061788D01*
X0061787Y0061788D01*
X0061787Y0063147D02*
X0061787Y0063147D01*
X0061787Y0064720D02*
X0061787Y0064720D01*
X0061787Y0066293D02*
X0061787Y0066293D01*
X0063819Y0066293D02*
X0068498Y0066293D01*
X0067036Y0064720D02*
X0065759Y0064720D01*
X0066398Y0060000D02*
X0066562Y0060000D01*
X0067353Y0058427D02*
X0065409Y0058427D01*
D22*
X0071787Y0106787D02*
X0074287Y0106787D01*
D23*
X0120488Y0062811D02*
X0120488Y0030587D01*
X0124287Y0026787D01*
X0124287Y0019287D01*
X0154287Y0064287D02*
X0154287Y0064406D01*
X0146906Y0071787D01*
M02*
