G75*
%MOIN*%
%OFA0B0*%
%FSLAX25Y25*%
%IPPOS*%
%LPD*%
%AMOC8*
5,1,8,0,0,1.08239X$1,22.5*
%
%ADD10C,0.00800*%
%ADD11C,0.00600*%
%ADD12C,0.00500*%
D10*
X0025473Y0087187D02*
X0024687Y0087973D01*
X0024687Y0089545D01*
X0025473Y0090331D01*
X0025473Y0092263D02*
X0024687Y0093049D01*
X0024687Y0094621D01*
X0025473Y0095406D01*
X0025473Y0092263D02*
X0028617Y0092263D01*
X0029403Y0093049D01*
X0029403Y0094621D01*
X0028617Y0095406D01*
X0028617Y0090331D02*
X0029403Y0089545D01*
X0029403Y0087973D01*
X0028617Y0087187D01*
X0025473Y0087187D01*
X0032955Y0088759D02*
X0034527Y0090331D01*
X0037671Y0090331D01*
X0036099Y0092263D02*
X0037671Y0093835D01*
X0032955Y0093835D01*
X0032955Y0095406D02*
X0032955Y0092263D01*
X0032955Y0088759D02*
X0034527Y0087187D01*
X0037671Y0087187D01*
X0041223Y0088759D02*
X0042795Y0087187D01*
X0044367Y0087187D01*
X0045939Y0088759D01*
X0043581Y0090571D02*
X0044367Y0091357D01*
X0044367Y0093715D01*
X0045939Y0095646D02*
X0044367Y0097218D01*
X0042795Y0097218D01*
X0041223Y0095646D01*
X0041223Y0093715D02*
X0041223Y0091357D01*
X0042009Y0090571D01*
X0043581Y0090571D01*
X0049491Y0090331D02*
X0054206Y0090331D01*
X0054206Y0092263D02*
X0052634Y0093835D01*
X0054206Y0095406D01*
X0049491Y0095406D01*
X0051848Y0097338D02*
X0051848Y0100482D01*
X0049491Y0102413D02*
X0049491Y0105557D01*
X0050277Y0107488D02*
X0049491Y0108274D01*
X0049491Y0109846D01*
X0050277Y0110632D01*
X0051848Y0112563D02*
X0051848Y0115707D01*
X0052634Y0117639D02*
X0051848Y0118425D01*
X0051848Y0119996D01*
X0051062Y0120782D01*
X0050277Y0120782D01*
X0049491Y0119996D01*
X0049491Y0118425D01*
X0050277Y0117639D01*
X0052634Y0117639D02*
X0053420Y0117639D01*
X0054206Y0118425D01*
X0054206Y0119996D01*
X0053420Y0120782D01*
X0054206Y0122714D02*
X0049491Y0122714D01*
X0051062Y0124286D01*
X0049491Y0125858D01*
X0054206Y0125858D01*
X0052634Y0127789D02*
X0054206Y0129361D01*
X0049491Y0129361D01*
X0049491Y0127789D02*
X0049491Y0130933D01*
X0051848Y0132864D02*
X0051848Y0136008D01*
X0051062Y0137939D02*
X0051062Y0140297D01*
X0051848Y0141083D01*
X0053420Y0141083D01*
X0054206Y0140297D01*
X0054206Y0137939D01*
X0049491Y0137939D01*
X0045939Y0141263D02*
X0045153Y0140477D01*
X0044367Y0140477D01*
X0043581Y0141263D01*
X0043581Y0142835D01*
X0042795Y0143621D01*
X0042009Y0143621D01*
X0041223Y0142835D01*
X0041223Y0141263D01*
X0042009Y0140477D01*
X0045939Y0141263D02*
X0045939Y0142835D01*
X0045153Y0143621D01*
X0043581Y0145552D02*
X0042009Y0145552D01*
X0041223Y0146338D01*
X0041223Y0148696D01*
X0041223Y0150627D02*
X0045939Y0150627D01*
X0044367Y0151413D02*
X0044367Y0152985D01*
X0043581Y0153771D01*
X0041223Y0153771D01*
X0042009Y0155703D02*
X0041223Y0156489D01*
X0041223Y0158060D01*
X0042009Y0158846D01*
X0043581Y0158846D01*
X0044367Y0158060D01*
X0044367Y0156489D01*
X0043581Y0155703D01*
X0042009Y0155703D01*
X0044367Y0151413D02*
X0043581Y0150627D01*
X0044367Y0148696D02*
X0044367Y0146338D01*
X0043581Y0145552D01*
X0049491Y0145372D02*
X0050277Y0146158D01*
X0049491Y0145372D02*
X0049491Y0143801D01*
X0050277Y0143015D01*
X0053420Y0143015D01*
X0054206Y0143801D01*
X0054206Y0145372D01*
X0053420Y0146158D01*
X0054206Y0148090D02*
X0054206Y0150448D01*
X0053420Y0151234D01*
X0052634Y0151234D01*
X0051848Y0150448D01*
X0051848Y0148090D01*
X0049491Y0148090D02*
X0049491Y0150448D01*
X0050277Y0151234D01*
X0051062Y0151234D01*
X0051848Y0150448D01*
X0049491Y0148090D02*
X0054206Y0148090D01*
X0043581Y0160778D02*
X0042009Y0160778D01*
X0041223Y0161564D01*
X0041223Y0163136D01*
X0042009Y0163922D01*
X0043581Y0163922D01*
X0044367Y0163136D01*
X0044367Y0161564D01*
X0043581Y0160778D01*
X0044367Y0165853D02*
X0044367Y0168211D01*
X0043581Y0168997D01*
X0042009Y0168997D01*
X0041223Y0168211D01*
X0041223Y0165853D01*
X0039651Y0165853D02*
X0044367Y0165853D01*
X0037671Y0152199D02*
X0032955Y0152199D01*
X0032955Y0150627D02*
X0032955Y0153771D01*
X0036099Y0150627D02*
X0037671Y0152199D01*
X0036885Y0148696D02*
X0036099Y0148696D01*
X0032955Y0145552D01*
X0032955Y0148696D01*
X0036885Y0148696D02*
X0037671Y0147910D01*
X0037671Y0146338D01*
X0036885Y0145552D01*
X0036885Y0143621D02*
X0033741Y0140477D01*
X0032955Y0141263D01*
X0032955Y0142835D01*
X0033741Y0143621D01*
X0036885Y0143621D01*
X0037671Y0142835D01*
X0037671Y0141263D01*
X0036885Y0140477D01*
X0033741Y0140477D01*
X0032955Y0138546D02*
X0032955Y0135402D01*
X0036099Y0138546D01*
X0036885Y0138546D01*
X0037671Y0137760D01*
X0037671Y0136188D01*
X0036885Y0135402D01*
X0033741Y0133650D02*
X0032955Y0133650D01*
X0032955Y0132864D01*
X0033741Y0132864D01*
X0033741Y0133650D01*
X0032955Y0130933D02*
X0032955Y0127789D01*
X0032955Y0129361D02*
X0037671Y0129361D01*
X0036099Y0127789D01*
X0036885Y0125858D02*
X0033741Y0125858D01*
X0032955Y0125072D01*
X0032955Y0123500D01*
X0033741Y0122714D01*
X0036885Y0125858D01*
X0037671Y0125072D01*
X0037671Y0123500D01*
X0036885Y0122714D01*
X0033741Y0122714D01*
X0033741Y0120962D02*
X0032955Y0120962D01*
X0032955Y0120176D01*
X0033741Y0120176D01*
X0033741Y0120962D01*
X0036885Y0118245D02*
X0033741Y0115101D01*
X0032955Y0115101D01*
X0033741Y0113170D02*
X0032955Y0112384D01*
X0032955Y0110812D01*
X0033741Y0110026D01*
X0036885Y0113170D01*
X0033741Y0113170D01*
X0033741Y0110026D02*
X0036885Y0110026D01*
X0037671Y0110812D01*
X0037671Y0112384D01*
X0036885Y0113170D01*
X0037671Y0115101D02*
X0037671Y0118245D01*
X0036885Y0118245D01*
X0041223Y0117639D02*
X0044367Y0117639D01*
X0044367Y0119211D02*
X0044367Y0119996D01*
X0044367Y0119211D02*
X0042795Y0117639D01*
X0042009Y0115707D02*
X0043581Y0115707D01*
X0044367Y0114921D01*
X0044367Y0113349D01*
X0043581Y0112563D01*
X0042009Y0112563D01*
X0041223Y0113349D01*
X0041223Y0114921D01*
X0042009Y0115707D01*
X0041223Y0110752D02*
X0041223Y0109180D01*
X0041223Y0109966D02*
X0045939Y0109966D01*
X0045939Y0109180D01*
X0045939Y0107249D02*
X0045939Y0104105D01*
X0041223Y0104105D01*
X0043581Y0104105D02*
X0043581Y0105677D01*
X0049491Y0102413D02*
X0054206Y0102413D01*
X0053420Y0107488D02*
X0050277Y0107488D01*
X0053420Y0107488D02*
X0054206Y0108274D01*
X0054206Y0109846D01*
X0053420Y0110632D01*
X0046725Y0122654D02*
X0045939Y0122654D01*
X0044367Y0122654D02*
X0044367Y0121868D01*
X0044367Y0122654D02*
X0041223Y0122654D01*
X0041223Y0121868D02*
X0041223Y0123440D01*
X0042009Y0125251D02*
X0041223Y0126037D01*
X0041223Y0128395D01*
X0043581Y0128395D01*
X0044367Y0127609D01*
X0044367Y0126037D01*
X0042795Y0126037D02*
X0042795Y0128395D01*
X0042795Y0126037D02*
X0042009Y0125251D01*
X0041223Y0130327D02*
X0044367Y0130327D01*
X0044367Y0132684D01*
X0043581Y0133470D01*
X0041223Y0133470D01*
X0029403Y0133650D02*
X0028617Y0132864D01*
X0027831Y0132864D01*
X0027045Y0133650D01*
X0027045Y0135222D01*
X0026259Y0136008D01*
X0025473Y0136008D01*
X0024687Y0135222D01*
X0024687Y0133650D01*
X0025473Y0132864D01*
X0027045Y0130933D02*
X0027045Y0127789D01*
X0025473Y0125858D02*
X0024687Y0125072D01*
X0024687Y0123500D01*
X0025473Y0122714D01*
X0028617Y0122714D01*
X0029403Y0123500D01*
X0029403Y0125072D01*
X0028617Y0125858D01*
X0029403Y0120782D02*
X0024687Y0120782D01*
X0029403Y0117639D01*
X0024687Y0117639D01*
X0027045Y0115707D02*
X0027045Y0112563D01*
X0028617Y0110632D02*
X0029403Y0110632D01*
X0028617Y0110632D02*
X0027045Y0109060D01*
X0024687Y0109060D01*
X0027045Y0109060D02*
X0028617Y0107488D01*
X0029403Y0107488D01*
X0028617Y0105557D02*
X0029403Y0104771D01*
X0029403Y0102413D01*
X0024687Y0102413D01*
X0024687Y0104771D01*
X0025473Y0105557D01*
X0026259Y0105557D01*
X0027045Y0104771D01*
X0027045Y0102413D01*
X0027045Y0104771D02*
X0027831Y0105557D01*
X0028617Y0105557D01*
X0032955Y0102233D02*
X0032955Y0100661D01*
X0033741Y0099875D01*
X0036885Y0103019D01*
X0033741Y0103019D01*
X0032955Y0102233D01*
X0033741Y0099875D02*
X0036885Y0099875D01*
X0037671Y0100661D01*
X0037671Y0102233D01*
X0036885Y0103019D01*
X0033741Y0098124D02*
X0032955Y0098124D01*
X0032955Y0097338D01*
X0033741Y0097338D01*
X0033741Y0098124D01*
X0049491Y0092263D02*
X0054206Y0092263D01*
X0051848Y0090331D02*
X0051848Y0087187D01*
X0049491Y0087187D02*
X0054206Y0087187D01*
X0029403Y0133650D02*
X0029403Y0135222D01*
X0028617Y0136008D01*
X0027831Y0137939D02*
X0029403Y0139511D01*
X0027831Y0141083D01*
X0024687Y0141083D01*
X0027045Y0141083D02*
X0027045Y0137939D01*
X0027831Y0137939D02*
X0024687Y0137939D01*
X0027045Y0148090D02*
X0027045Y0151234D01*
X0024687Y0150448D02*
X0029403Y0150448D01*
X0027045Y0148090D01*
X0025473Y0153165D02*
X0024687Y0153165D01*
X0024687Y0153951D01*
X0025473Y0153951D01*
X0025473Y0153165D01*
X0025473Y0155703D02*
X0024687Y0156489D01*
X0024687Y0158060D01*
X0025473Y0158846D01*
X0028617Y0158846D01*
X0025473Y0155703D01*
X0028617Y0155703D01*
X0029403Y0156489D01*
X0029403Y0158060D01*
X0028617Y0158846D01*
D11*
X0042787Y0039787D02*
X0042787Y0033787D01*
X0042789Y0033727D01*
X0042794Y0033666D01*
X0042803Y0033607D01*
X0042816Y0033548D01*
X0042832Y0033489D01*
X0042852Y0033432D01*
X0042875Y0033377D01*
X0042902Y0033322D01*
X0042931Y0033270D01*
X0042964Y0033219D01*
X0043000Y0033170D01*
X0043038Y0033124D01*
X0043080Y0033080D01*
X0043124Y0033038D01*
X0043170Y0033000D01*
X0043219Y0032964D01*
X0043270Y0032931D01*
X0043322Y0032902D01*
X0043377Y0032875D01*
X0043432Y0032852D01*
X0043489Y0032832D01*
X0043548Y0032816D01*
X0043607Y0032803D01*
X0043666Y0032794D01*
X0043727Y0032789D01*
X0043787Y0032787D01*
X0054787Y0032787D01*
X0054847Y0032789D01*
X0054908Y0032794D01*
X0054967Y0032803D01*
X0055026Y0032816D01*
X0055085Y0032832D01*
X0055142Y0032852D01*
X0055197Y0032875D01*
X0055252Y0032902D01*
X0055304Y0032931D01*
X0055355Y0032964D01*
X0055404Y0033000D01*
X0055450Y0033038D01*
X0055494Y0033080D01*
X0055536Y0033124D01*
X0055574Y0033170D01*
X0055610Y0033219D01*
X0055643Y0033270D01*
X0055672Y0033322D01*
X0055699Y0033377D01*
X0055722Y0033432D01*
X0055742Y0033489D01*
X0055758Y0033548D01*
X0055771Y0033607D01*
X0055780Y0033666D01*
X0055785Y0033727D01*
X0055787Y0033787D01*
X0055787Y0039787D01*
X0055785Y0039847D01*
X0055780Y0039908D01*
X0055771Y0039967D01*
X0055758Y0040026D01*
X0055742Y0040085D01*
X0055722Y0040142D01*
X0055699Y0040197D01*
X0055672Y0040252D01*
X0055643Y0040304D01*
X0055610Y0040355D01*
X0055574Y0040404D01*
X0055536Y0040450D01*
X0055494Y0040494D01*
X0055450Y0040536D01*
X0055404Y0040574D01*
X0055355Y0040610D01*
X0055304Y0040643D01*
X0055252Y0040672D01*
X0055197Y0040699D01*
X0055142Y0040722D01*
X0055085Y0040742D01*
X0055026Y0040758D01*
X0054967Y0040771D01*
X0054908Y0040780D01*
X0054847Y0040785D01*
X0054787Y0040787D01*
X0043787Y0040787D01*
X0043727Y0040785D01*
X0043666Y0040780D01*
X0043607Y0040771D01*
X0043548Y0040758D01*
X0043489Y0040742D01*
X0043432Y0040722D01*
X0043377Y0040699D01*
X0043322Y0040672D01*
X0043270Y0040643D01*
X0043219Y0040610D01*
X0043170Y0040574D01*
X0043124Y0040536D01*
X0043080Y0040494D01*
X0043038Y0040450D01*
X0043000Y0040404D01*
X0042964Y0040355D01*
X0042931Y0040304D01*
X0042902Y0040252D01*
X0042875Y0040197D01*
X0042852Y0040142D01*
X0042832Y0040085D01*
X0042816Y0040026D01*
X0042803Y0039967D01*
X0042794Y0039908D01*
X0042789Y0039847D01*
X0042787Y0039787D01*
X0082787Y0038787D02*
X0082787Y0044787D01*
X0082789Y0044847D01*
X0082794Y0044908D01*
X0082803Y0044967D01*
X0082816Y0045026D01*
X0082832Y0045085D01*
X0082852Y0045142D01*
X0082875Y0045197D01*
X0082902Y0045252D01*
X0082931Y0045304D01*
X0082964Y0045355D01*
X0083000Y0045404D01*
X0083038Y0045450D01*
X0083080Y0045494D01*
X0083124Y0045536D01*
X0083170Y0045574D01*
X0083219Y0045610D01*
X0083270Y0045643D01*
X0083322Y0045672D01*
X0083377Y0045699D01*
X0083432Y0045722D01*
X0083489Y0045742D01*
X0083548Y0045758D01*
X0083607Y0045771D01*
X0083666Y0045780D01*
X0083727Y0045785D01*
X0083787Y0045787D01*
X0094787Y0045787D01*
X0094847Y0045785D01*
X0094908Y0045780D01*
X0094967Y0045771D01*
X0095026Y0045758D01*
X0095085Y0045742D01*
X0095142Y0045722D01*
X0095197Y0045699D01*
X0095252Y0045672D01*
X0095304Y0045643D01*
X0095355Y0045610D01*
X0095404Y0045574D01*
X0095450Y0045536D01*
X0095494Y0045494D01*
X0095536Y0045450D01*
X0095574Y0045404D01*
X0095610Y0045355D01*
X0095643Y0045304D01*
X0095672Y0045252D01*
X0095699Y0045197D01*
X0095722Y0045142D01*
X0095742Y0045085D01*
X0095758Y0045026D01*
X0095771Y0044967D01*
X0095780Y0044908D01*
X0095785Y0044847D01*
X0095787Y0044787D01*
X0095787Y0038787D01*
X0095785Y0038727D01*
X0095780Y0038666D01*
X0095771Y0038607D01*
X0095758Y0038548D01*
X0095742Y0038489D01*
X0095722Y0038432D01*
X0095699Y0038377D01*
X0095672Y0038322D01*
X0095643Y0038270D01*
X0095610Y0038219D01*
X0095574Y0038170D01*
X0095536Y0038124D01*
X0095494Y0038080D01*
X0095450Y0038038D01*
X0095404Y0038000D01*
X0095355Y0037964D01*
X0095304Y0037931D01*
X0095252Y0037902D01*
X0095197Y0037875D01*
X0095142Y0037852D01*
X0095085Y0037832D01*
X0095026Y0037816D01*
X0094967Y0037803D01*
X0094908Y0037794D01*
X0094847Y0037789D01*
X0094787Y0037787D01*
X0083787Y0037787D01*
X0083727Y0037789D01*
X0083666Y0037794D01*
X0083607Y0037803D01*
X0083548Y0037816D01*
X0083489Y0037832D01*
X0083432Y0037852D01*
X0083377Y0037875D01*
X0083322Y0037902D01*
X0083270Y0037931D01*
X0083219Y0037964D01*
X0083170Y0038000D01*
X0083124Y0038038D01*
X0083080Y0038080D01*
X0083038Y0038124D01*
X0083000Y0038170D01*
X0082964Y0038219D01*
X0082931Y0038270D01*
X0082902Y0038322D01*
X0082875Y0038377D01*
X0082852Y0038432D01*
X0082832Y0038489D01*
X0082816Y0038548D01*
X0082803Y0038607D01*
X0082794Y0038666D01*
X0082789Y0038727D01*
X0082787Y0038787D01*
D12*
X0084078Y0046537D02*
X0085579Y0046537D01*
X0086330Y0047288D01*
X0084828Y0048789D02*
X0084078Y0048789D01*
X0083327Y0048039D01*
X0083327Y0047288D01*
X0084078Y0046537D01*
X0084078Y0048789D02*
X0083327Y0049540D01*
X0083327Y0050291D01*
X0084078Y0051041D01*
X0085579Y0051041D01*
X0086330Y0050291D01*
X0087931Y0051041D02*
X0089432Y0051041D01*
X0088682Y0051041D02*
X0088682Y0047288D01*
X0089432Y0046537D01*
X0090183Y0046537D01*
X0090933Y0047288D01*
X0092535Y0047288D02*
X0092535Y0048039D01*
X0093285Y0048789D01*
X0094787Y0048789D01*
X0095537Y0049540D01*
X0095537Y0050291D01*
X0094787Y0051041D01*
X0093285Y0051041D01*
X0092535Y0050291D01*
X0092535Y0047288D02*
X0093285Y0046537D01*
X0094787Y0046537D01*
X0095537Y0047288D01*
X0055537Y0045291D02*
X0055537Y0044540D01*
X0054787Y0043789D01*
X0053285Y0043789D01*
X0052535Y0043039D01*
X0052535Y0042288D01*
X0053285Y0041537D01*
X0054787Y0041537D01*
X0055537Y0042288D01*
X0055537Y0045291D02*
X0054787Y0046041D01*
X0053285Y0046041D01*
X0052535Y0045291D01*
X0050933Y0042288D02*
X0050183Y0041537D01*
X0049432Y0041537D01*
X0048682Y0042288D01*
X0048682Y0046041D01*
X0049432Y0046041D02*
X0047931Y0046041D01*
X0046330Y0043789D02*
X0043327Y0043789D01*
X0044078Y0041537D02*
X0044078Y0046041D01*
X0046330Y0043789D01*
M02*
